<?xml version="1.0" encoding="utf-8"?>
<!-- Generator: Adobe Illustrator 24.1.1, SVG Export Plug-In . SVG Version: 6.00 Build 0)  -->
<svg version="1.1" id="Layer_1" xmlns="http://www.w3.org/2000/svg" xmlns:xlink="http://www.w3.org/1999/xlink" x="0px" y="0px"
	 viewBox="0 0 1872 1009.9" style="enable-background:new 0 0 1872 1009.9;" xml:space="preserve">
<style type="text/css">
	.st0{fill:none;stroke:#000000;stroke-width:6;stroke-linejoin:round;}
	.st1{fill:none;stroke:#000000;stroke-width:4;stroke-linejoin:round;}
	.st2{fill:none;stroke:#EA5438;stroke-width:6;stroke-linejoin:round;}
</style>
<g>
	<path class="st0" d="M193.1,76.6l0.6-1.1l0.7,0.1l6.3-1.4l5.9,0l30.5-3.9l27.2-2.7l8.3-0.4l47.6-4.3l11-0.8l76.3-4.2l29.1-2.3
		l30.8-1.9l16.1-1.4l16.6-1l16.9-0.3l85.1-5.2l17.7-0.7l89.5-1.6l36.5-1.1l35-0.6l52.9-0.5l72.1,0.9l18.2,0.4l17.7,1.1l34.8,0.5
		l33,0.9l30.9,1.6l29.5,0.5l40.9,1.8l56.4,3.3l9.5,0.2l9,0.6l16.6,1.8l28.3,2.1l6.3,0.3l6.3-0.2l11.9,0.7l18.7,1.7l10.3,1.9l2.7-0.1
		l2.6,0.5l2.3,1.1l4.6,0.9l0.8,0.4l-1.3,0l0.3,0.6l0.1-0.6l-1.4-1.4l-4.7-1.6"/>
</g>
<g>
	<path class="st0" d="M186.9,78.3l-3,4l-0.2,0.7l0.6-0.4l1.9,0.8l-0.3,0.1l0.1,0.4l-0.2-0.4l0.8,2.5l0.7,4.5l0.9,8.8l1.1,32.3
		l4.2,92.1l3.6,73.8l2.8,45.5l6.1,65.8l5.3,51l6.9,74.2l1.5,18.5l6,91.9l1.9,52.6l1.1,86l0.1,54.1l0.3,8.3l0.9,13.3l1.2,10l2.7,8.7
		l1.8,3.1l2.1,2.6l-0.6-0.1l-0.2-0.6l-0.1,0.3l0.2-0.4l-0.1,0.9l0.2-1.2l0.1,0.9l0-0.5l6.1-1l2.6-1.1l8.8-1.9l12.1-3.6l5-0.5
		l5.5-1.1l5.8-1.8l12.4-3l29.3-5.6l27.1-3.2l31.4-2.6l59.8-3l54.9-1.7l45.5,0.1l33.9-1.1l36-0.5l281.5-2.1l66.5-1.3l82-0.1
		l140.3,2.1l62.3,0l4.5,0.5l1.1-0.6l-1.9-0.4l-0.3,0.7l-5.4-4.8l-3.8-2.3l-4.1-1.6l-4.6-3.2"/>
</g>
<g>
	<path class="st0" d="M1292.5,60.7l-1.4,0.5l0.1-0.7l-0.7-0.2l-0.5,0.4l0,0.9l1.1,7.4l3,13l3.8,23.5l2.2,16.7l2.7,27.1l0.7,14.9
		l0.1,54.9l0.7,19l2.3,33.2l3.6,34.2l0.5,11.9l-0.4,34.4l-1.5,23.5l-0.9,23.4l0,23.4l2.9,75l0.2,21.2l-0.4,49.8l0.4,28.3l1.1,26.8
		l2.4,37.8l0.4,13.1l-0.3,13.7l-0.5,6.8l-1.5,12.1l-2.5,12.2l-5.8,20.1l-1.2,3.4l-1.6,8.6l-10.1,38.3l-0.7,5.8l-1.8,8.1l-1.7,17.8
		l-1.3,8.6l0.9,8.3l0.2,8.9l1.3,8l0.4,0.6l1.1,4.3l0.2,0.1l-0.1-0.5l0.2,0.6l-0.3,0l-0.1-1.6l-0.1,0.3l-0.3-0.9l-0.3,0.6l-1.5-2
		l-2.6-2l-2.6-1.2l-5.3-1.3l-2.2,0l-2.4,0.8l-5.3,0.8l-3-0.5l-3.1,0.3l-2.7,1.7l-2.7,0.6l-2.2-0.4l-6.9,0.4l-0.7-0.2l0.4-0.3
		l-0.2-0.8"/>
</g>
<g>
	<path class="st1" d="M450.6,144.8l0-0.3l1-0.8l1-2.5l1.3-4.2l1.7-7.3l1.4-11.9l-0.2-8.6l0.3,0.8l0.5,0.1l3.7,3.2l3.9,4.1l7.9,10
		l2.2,3.8l4.4,10.1l6.6,17.4l2,6.6l3.7,13.2l2.9,13l1.6,11.6l0.3,4.8l-0.1,4.9l-1.1,9l-1.4,3.8l-2.3,3.7l-2.8,3.4l-3.1,3.1l-3.3,2.5
		l-3.2,1.7l-3.1,1.2l-2.9,0.6l-3,0.1l-5.1-1l-2.3-1.4l-1.9-2.2l-4.8-7.2l-3.6-8.2l-3.6-9.8l-3.6-15l0.6-0.7l0.5,0.1l1.9-1.9l3.2-2.1
		"/>
</g>
<g>
	<path class="st1" d="M540.6,182.3l1.9-3l0-0.6l-0.7-3.3l-0.8-2.4l-0.9-1.4l-1.6-1.1l-2.2-1.1l-1.3-0.2l-4.1,0.2l-4.2,1.8l-2.5,2
		l-4.2,5l-2.2,4.8l-0.7,2.3l-0.3,2.4l-0.1,2.4l0.9,4.5l0.9,2.3l2.7,4l12.8,12.1l5.5,3.6l5.6,3l2.6,1l4.7-0.2l2.1-0.4l1.9-0.9
		l3.6-3.1l1.7-2.2l1.4-2.5l1-2.4l0.5-2.7l0.1-2.7l-0.5-2.4l-1.7-4.8l-6.2-13.7L555,180l-1.8-2l-3.1-2.2l-1.2-0.3l-3,0l-1.3,0.4
		l-1.2,0.9"/>
</g>
<g>
	<path class="st1" d="M642,119l4.3-3.1l-1.4,1.2l-0.1,0.7l3.6,6.9l3.1,11.3l2.1,16.2l1.1,40l0.6,5.3l0.5,0.4l0.5-0.2l4.3-4.3"/>
</g>
<g>
	<path class="st1" d="M618.3,123.8l0.3-0.6l-0.4-1.3l-1.4-0.9l0.6,0.1l1.3-1.6l4.3-3.5l5-3l7.7-3.4l4.6-1.6l16.6-4.1l5.8-1l11.8-1.3
		l10.7,0.2l4.7,0.4l4,0.9l3.2,1.3l2.5,1.9l1.8,2.1l1.3,2.2l0.6,2.5l0,2.6l-0.7,2.8l-1.7,3.2l-2.7,3.4l-16.5,15.8l-13.9,10.7l-11,8
		l-2.9,3.2l-0.3,1.4l0.5,1.2l2.1,1.7l7.1,3.4l3.5,1.1l25.9,5.3l3.5,1.3l6.5,3.9l3,2.5l2.4,2.8l1.9,2.9l1.5,3.1l0.9,3.3l0.4,3.3
		l-0.4,6.4l-0.7,3.6l-1.1,3.6l-1.5,3.5l-4.4,6.6l-2.6,3.2l-3,2.7l-3.3,2.5l-3.6,2l-3.7,1.3l-8.4,1.2l-5.2,0.3l-5.5-0.2l-10.4-1.4
		l-3.9-1.3l-2.8-1.5l-1.6-1.9l-0.9-2.4l-0.8-5.9l0.1-4l0.8-4.6l3.1-10l1.5-6.2"/>
</g>
<g>
	<path class="st1" d="M725.4,103.2l4-2.7l0.2,0.3l-0.6,0.9l-0.1,1.7l0.6,5.8l5.5,23.4l2.8,16l0.5,38.8l1.2,6.3l0.7,2.2l2.6,3.4
		l1.1,0.7"/>
</g>
<g>
	<path class="st1" d="M776,177.5l-0.7-1.1l-0.4-2l1.4-3.5l0.1-3.5l-0.4-2.3l-1.2-2.5l-1.7-0.7l-3.1,0.3l-5.7,2.8l-2.1,1.7l-1.9,2.2
		l-1.8,2.2l-1.4,2.3l-1.1,2.8l-0.7,2.9l-0.3,5.7l0.5,2.3l1.1,2l1.4,1.8l3.8,3l9.2,2.3l7.8,0l10.5-2.2l2.5-1.1l2-1.5l1.5-1.7l1.8-3.1
		l0.8-2.9l0.1-1.8l-0.6-4.6l-0.9-2.2l-3.8-6.1l-2.5-2.5l-1.4-0.8l-1.8-0.3l-3.3,0.8l-0.8,0.5l0.3,0.8"/>
</g>
<g>
	<path class="st1" d="M845.9,174.5l1.7-2l1.9-3.6l0.1-2.5l-0.5-1.7l-3.8-7.2l-2.2-2.6l-3.2-2l-2.3-0.5l-5.3,0.6l-2.6,0.8l-2.6,1.5
		l-2.4,1.8l-1.8,2.3l-1.4,2.8l-2.2,6.6l-1.1,6.9l0,3.8l0.7,3l1.1,2.2l1.5,2l2,1.6l4.5,2.1l2.4,0.6l2.5,0.1l2.4-0.5l2.1-0.8l4.1-2.5
		l3.3-3.6l3-5.1l0.3-3.4l-0.5-2.5l-0.9-1.2l-0.9,0.2l8.7,19.2l2.9,7.5l2.5,8.8l1.6,10l0.6,5.1l0.6,11.3l0,17.3l-0.3,5l-0.8,3.5
		l-1.2,3l-1.7,2.3l-2.3,1.7l-2.8,1.1l-6.8,0.7l-10-0.1l-6.5-0.5l-6.9-1l-6.5-1.5l-5.7-1.7l-5-2l-3.8-2.3l-7.3-7.1l-1.8-2.5l-1.2-2.9
		l-0.7-2.9l-0.2-3l0.6-3.4l1.3-3.8l2-4l2.5-4l3-4.3l7.5-9.1"/>
</g>
<g>
	<path class="st1" d="M902.1,156.6l0.9-1.8l-0.4-3.2l-4.1-2.9l-3.1-1.4l-4.4-1.8l-3.1-0.8l-3.8,0.5l-3.6,1.6l-3.2,2.4l-1.5,1.6
		l-1.5,1.7l-1.2,2.3l-1.7,6.5l-0.3,3.7l0.3,4l0.9,4.3l1.6,4.4l2.1,4l2.6,3.2l2.9,2.5l3.3,1.8l3.2,1.3l3.2,0.6l3.2-0.4l3-1.1l3-1.6
		l2.7-2.2l4.3-5l1.6-2.8l0.9-3l0.3-2.8l-0.3-2.9l-2-6.2l-1.4-2.9l-3.1-4.3l-3.3-2.8l1.3,1.5l5.2,10.9l11.1,17.7l4,8.1l3.5,8.7
		l3.1,10.7l4.8,13.9l1.4,5.7l2,10.6l0.5,4.9l0.4,9.7l-0.2,4.7l-0.5,4.8l-1,4.9l-1.4,4.4l-1.7,3.6l-1.9,2.7l-2.2,1.9l-2.4,0.8l-2.4,0
		l-6.9-1l-5.6-1.5l-16.2-4.7l-16.7-6.1l-5.5-2.9l-3.5-3.2l-2.9-3.7l-2.8-4.6l-2.2-5.6l-1.6-5.9l-0.7-6.3l0.1-7.2l1.1-7.9l1.7-8.3
		l2.3-7.9"/>
</g>
<g>
	<path class="st1" d="M972.4,134.5l0.9-3.6l-0.7-1.1l-1.7-1.2l-6.4-1.3l-3.5,0.4l-2.3,0.5l-7.2,3l-2,1.2l-1.1,1.2l-0.3,1.2l1.1,2.7
		l1.2,1.8l1.9,2.2l2.8,2.4l8.5,5.4l24.6,11.8l6,3.3l4.7,3.1l2.8,2.9l1.3,2.8l0.9,4.3l-0.2,3.3l-0.6,1.2l-1,0.7l-3.3,0.3l-2.6,0.9
		l-7.7,0.8l-10.7,0.5l-15.5,1.6l-3.6,0.7l-10.7,3.3l-2.5,1.5l-0.2,0.8"/>
</g>
<g>
	<path class="st1" d="M505.5,269.5l0.8-1.5l-0.5,0.8l0.2,0l1.7,11.9l2.1,11.1l1.6,5.3l1.2,2.1l2.5,3.2l2.6,2.2l2,0.8l0.8-0.1
		l1.7-1.2l2.4-2.4l2.1-3.3l1.9-3.9l0.8-3.4l0.1-3.1l-0.6-5l-0.1,0.8l0.6,1.3l1.6,2.4l1.8,3.7l1.2,1.8l3,3.3l1.9,2l2.3,1.4l5,2.1
		l2.8,0.7l5.1,0.5l2.5,0.1l2.4-0.4l2-0.9l3.7-2.7l3.2-3.4l1.1-1.9l0.6-1.8l0.2-1.8l-0.3-2.4l-0.8-1.8l-2.4-2.2l-7.8-9l-4.5-3.8
		l-5.1-2.9l-4.4-2.1l-5.8-1.1l1.8,0.6l0.8,2.6"/>
</g>
<g>
	<path class="st1" d="M576.7,282.1l2.8,2.1l3.6,0.9l4.5,0.5l7.3-0.3l5.2-1.7l4.5-3.2l0.5-1.1l-1-2.2l-1.6-1.7l-1-0.8l-3.8-1.6
		l-2.8-0.7l-3.4,0.1l-1.7,0.4l-5.2,2.6l-2.6,2.8l-2,3l-1.3,4l-0.1,1.6l0.7,3.1l3.5,3.4l2.3,1.5l5.9,2.8l3.2,1l9.1,1.4l3,0l5.9-0.5
		l5.7-1.9"/>
</g>
<g>
	<path class="st1" d="M613.1,255l0.8,1l1.3,7l2.8,7.1l6.8,11.2l1,2.2l2,5.2l0.2,1.8l-0.3,0.4l-0.8-1l-0.3-1.5l0.2-1.1l1.5-2.6l1-1.1
		l1.2-0.7l4.7-1.3l5.3,0.6l5.5,1.7l1.5,1l1.1,1.3l1.3,2.6l-0.1,2l-1.3,1.7l-1.3,0.9l-4.1,1.9l-8,2l-5.8,0.5l-2.3-0.4l-1.9-0.9"/>
</g>
<g>
	<path class="st1" d="M695.5,259.8l0.9,15.1l1.9,11.3l2.1,5.9l1.3,2.4l1.4,2l0.1-0.2"/>
</g>
<g>
	<path class="st1" d="M692.4,262.7l1.6-1.4l2.4-0.7l3.7-0.6l6.7-0.2l8.1,0.9l8.9,1.9l4.5,1.3l4.2,1.6l3.7,1.9l3.3,2.5l5.4,5.2
		l1.8,2.7l1,2.7l0.4,2.6l-0.3,2.5l-0.9,2.1l-1.7,1.9l-2.5,1.7l-3.3,1.4l-12,4.4l-17.6,3.1l-3.1,0.3l-3.9-0.5l-1.2-0.5l0.8-0.7"/>
</g>
<g>
	<path class="st1" d="M757.2,279.6l0.7-0.5l1.9,0l8.7,0.6l3.8-0.1l3.6-0.8l3.6-1l2.7-1.3l1.1-1.5l-1.5-1.4l-4-1.6l-2.8-0.2l-4.2,0.3
		l-2.4,0.6l-2.7,2.3l-1.8,3l-0.8,1.7l-1.3,5.3l-0.1,3.1l1.2,1.9l5.8,2.4l3.7,1.2l5.1,0.9"/>
</g>
<g>
	<path class="st1" d="M812.1,274.3l-0.2-0.7l-0.9-1l-1.9-0.1l-4.4,1.9l-0.8,0.5l-1,1.6l2.7,3.4l8.9,6.3l5.4,3.3l0.5,0.5l0.1,1
		l-0.9,1.3l-1.8,1.4l-4.3,1.6l-3.6,0.6l-1.4-0.3l-1.9-1.2"/>
</g>
<g>
	<path class="st1" d="M822.6,270.4l-0.2-0.6l0.1,0.6l-0.4-0.2l0.2,0.1l0-0.2l-0.1,0.9l-0.4,0.7l0.4,3.9l1.4,4.2l1.1,0.5l1.2,1.1
		l0.5,1.5"/>
</g>
<g>
	<path class="st1" d="M828.4,240.7l1.6-2.6l0.3,0l-0.7,0.5l-0.2,0.8l0.2-0.2l1.5,10.4"/>
</g>
<g>
	<path class="st1" d="M851.9,276.6l1.9-2.3l-0.3-1.6l-3.3-3.8l-0.9-0.5l-2-0.4l-4,1l-3.6,2.1l-2.5,2.7l-1.1,2.7l0,1.2l0.7,2l0.6,0.7
		l1.4,0.7l1.8,0.1l7.6-1.8l1.2,0l2.1-0.9l2.2-0.3l0.4,0.2l1.4,3.6l1.8,6.9l3,16.8l0.8,8l0.3,7.5l-0.6,7l-1.6,6l-2.3,4.4l-1.5,1.6
		l-2,1.2l-2.3,0.8l-5.2,1.1l-2.7,0l-2.6-0.6l-2.7-0.9l-5.8-3.1l-6.2-4.3l-2.7-2.1l-1.9-2.1l-1.3-2l-0.5-2.1l0.6-5l1.8-8.3l3.2-10.2"
		/>
</g>
<g>
	<path class="st1" d="M868,272.7l-0.5-0.6l-0.5,0l0.9,9.5l0,4.7l0.7,4.2l0.8,2.8l1.5,3l0.4-0.3l-0.3-0.6l0.7-4l1.2-3.6l4.3-7.5
		l3.3-7.4l1.4-1.2l0.3,0.1l0.3,1.3l1,2l3,4.5l5.7,5l6.9,4.6l10.4,5.4l5.1,1.6l5.1,0.6"/>
</g>
<g>
	<path class="st1" d="M914.8,276.7l4.2,1.2l3.9,2l2,0.6l9.9,1.1l7.3-0.5l11.3-3l3.2-1.8l0.8-0.9l0.1-0.8l-0.5-0.7l-3-2.2l-1.5-0.6
		l-6-0.9l-5.8,0.2l-5.3,1.4l-1.9,1.1l-3.1,3l-1.8,3l-0.3,1.4l0.3,1.1l2.2,3l2.2,1.6l5.7,3l3.5,1.4l15.7,4.8l14.9,2.5l6.4,0.3
		l8.1-0.5l-3-0.5l-2.2-1.6l-1.2-5.2l-1.2-2.7l-2.9-5.8l-4.7-8l-1.4-3.1l-0.5-2.7l0.3-1.8l1.9-2.8l2.9-2.1l5.6-2.1l2.4-0.3l5.2,0.1
		l6.5,0.7l6.8,1.9l1.9-1.4"/>
</g>
<g>
	<path class="st1" d="M490,591l0.3,0.5l0.1-0.5l-0.2,0.5l1.7,7.7l3.6,13.3l1.8,10.9l1.2,10.8l0.3,6.5l-0.1,4.6l0.4,4.3l0.3-1.7
		l3.7-9.7l3.7-7.6l4-5.1l3.2-2.2l0.4,0.1l1.2,3.2l5.5,8.4l1.6,1.4l4.9,2.8l10.2,2.7l5.4,0.2l2.7-0.4l2.6-0.8l5-2.6l2.1-1.5l1.5-1.7
		l0.9-1.7l0.5-1.6l-0.6-3.1l-3-4.7l-2.6-2.9l-2.8-1.9l-1.5-0.7l-1.4-0.1l-2.1,0.9l-1,1l-0.7,1.8l-0.3,2.8l0.3,3.4l0.6,1.6l3.7,5.8
		l3.9,3.7l4.5,3.1l3.4,1.5l2,0.5l2,0l3.3-0.4l1.4-0.8l1.4-1l3.2-4l2-3.4l1.3-3.5l0.1-5.6l-1.3-31.2l-0.3,3l-0.1,0.4l-0.2-0.3l0.5,2
		l1.7,12.2l0.6,3.6l2.7,9.7l6.3,14.5l1.3,2.3l1.5,1.5l3.7,1.6l1.8,0.2l3.8-1.2l1.9-1l1.8-1.6l5-6l2.4-4.6l0.5-2.3l0-4.6l-1.5-10.3
		l-0.6-9.1l0.4-12.6l-0.5,1l-0.8,3.6l0.2,6.6l0.6,5l3.3,16.9l1.7,6.2l2,5l3.5,5.2l1.3,1.1l2.5,0.9l1.2-0.2l2.3-1l2.4-2.3l1.4-2.1"/>
</g>
<g>
	<path class="st1" d="M648.1,617.3l-0.5-1.9l-1.6-1.6l-2-1l-1-0.2l-5.1,1.3l-1,0.6l-0.7,1.3l-0.9,2.8l-0.6,3.4l0.2,3.7l0.7,3.6
		l2.3,3.8l1.9,1l1.3,0l2.7-0.9l1.5-1.1l7.1-8.4l3.2-4.6l0.3-1l0-0.9l-0.6-0.7l-3.1-1.8l-3.7-2.8"/>
</g>
<g>
	<path class="st1" d="M699.1,616.8l-2.1-0.6l-0.5-1.5l-2.8-3.7l-3.7,1.6l-1.7,1.9l-1.5,2.5l-0.9,3.8l1.6,5.6l1.4,2.2l4,1.8l1,0
		l2-1.3l3.3-3.8l1.7-3l0.7-2.9l-0.1-2.1l-1.2-1.3l-1.1-0.1l0.8,0.2l3.2,4.7l4.4,3.8l1.5,0.9l5.4,1.5l2,0.2l1.8-0.2l1.8-0.7l3.2-2.1
		l3.1-3.1l2-4.1l0.7-3.4l-0.3-1.6l-5.4-17.2l-2.6-7.3l-1.6-3.1l-1.8-2.2l-2-1.6l-2.2-1.2l-2.3-0.6l-4.4,0.5l-4,2l-1.9,1.5l-6.8,7.1
		l-2.6,3.1l-4.6,6.7l-4.3,7.3l-5.8,12.9l-1.6,4.2l-2.1,8.6l-0.5,4l0.3,3.6l1.1,3.2l1.7,2.8l2.4,2.7l3,2.3l3.7,2.2l9.2,3.4l5,0.8
		l9.8,0.8l4.3-0.3l8.4-2.3l9.3-4l4.2-2.2"/>
</g>
<g>
	<path class="st1" d="M765.9,617.1l2.5-6.2l0.6-4.8l-0.2-5.3l0,0.9l1.6,2.7l1.6,5.7l1.4,7.7l1.1,9.9l0.5,9.9l-0.2,8.1l-0.9,9.4
		l-0.8,2.3l-2.9,4.9l-1.9,1.9l-1,0.5l-2.8-0.2l-7-3.7l-4-2.7l-2.2-2l-3.4-5.1l-1.1-3.1l-0.8-3.7l-0.2-3.8"/>
</g>
<g>
	<path class="st1" d="M766.5,580.6l-0.3-0.8l0.2,0.5l1.5,1.2"/>
</g>
<g>
	<path class="st1" d="M800.9,620.4l-1.9-4.6l-0.4-1.8l-1.6-1l-1.2,0.1l-1.2,0.8l-2.5,4.1l-1.2,8.1l0.2,3l1,2.7l1.7,2.4l3.7,2.2
		l1.3,0.6l1.7,0.1l2.6-1.9l0.7-6.1l-0.2-8.2l-1.2-4.6l-1.7-2.5l-0.3-0.1l0,1.1l-0.4-0.5"/>
</g>
<g>
	<path class="st1" d="M821.3,575.7l-0.5-2l0.3,0.6l0.5,0.1l0.4,1.8l2.3,5.8l2.3,9.9l1,6.1l0.1,20.6l1.1,14.2l-0.2,2l0.1-0.9
		l-0.6-1.8l0-2.4l1-2.2l3.6-3.2l3-1.4l5.3-1.3l5.1,0.2l1.3,0.5l1.5,2l0.7,3.4l-0.6,5.5l-0.9,2l-3.8,5.4l-3.4,3l-5.3,2.9l-4,0.6
		l-1.7-1l-0.2-1.4l0.2-2.6"/>
</g>
<g>
	<path class="st1" d="M857.2,585.6l1.2-2.3l1.8-2.2l0.7,0l-1.3,2.1l0,0.7l2.1,20.6l2.4,13l3.1,14.2l0.7,8.1l0.3-0.8"/>
</g>
<g>
	<path class="st1" d="M897.2,620.4l-0.9,0.1l-1.5-0.4l-5.1-7.7l-1.8-1.7l-1.4-0.4l-2.3,0l-2.3,1l-1.1,1.5l-0.4,1.3l-1.6,8.6l0.5,8.4
		l1.5,3.4l0.8,0.6l0.8,0.2l2.7-0.8l1-0.7l3.3-3.7l3.3-4.5l1.7-2.8l0.5-2.2l-0.4-1.3l-1.4-2.1l0.3,0.7"/>
</g>
<g>
	<path d="M875.3,672.6L875.3,672.6c0.8,1.8,1.5,3.7,2.4,5.4c0.3,0.5,0.7,0.8,1.1,1.1c1.3,0.8,2.6,1.5,3.9,2c1.7,0.7,3.5,1.4,5.4,1.8
		c3.1,0.8,6.2,1.5,9.4,1.8c2.7,0.3,5.4,0.2,8.1-0.1c2-0.3,4-0.9,6-1.6c3.6-1.4,7-3,10.5-4.7c1.9-1,3.4-3.3,5.5-3.3
		c1.8,0,2.8,2.2,4.3,3.1c2.1,1.3,4.4,2.5,6.6,3.6c0.3,0.2,0.7,0.1,1.1,0.1c2.7,0,5.4,0.4,8.1-0.1c2-0.4,3.8-1.5,5.6-2.6
		c1.5-0.9,3-2,4.3-3.3c1.4-1.4,2.8-3,3.8-4.8c1.2-2.4,1.9-5.1,2.6-7.7c0.2-0.7,0.1-1.4,0.1-2.1c0-5,0.5-10.1-0.1-15.1
		c-0.5-4.2-2.3-8.1-3.3-12.2c-0.9-3.9-1.9-7.7-2.5-11.7c-0.4-2.9,0.6-5.9-0.2-8.7c-0.4-1.4-2.1-2.1-3.4-2.7c-0.6-0.3-1.6-0.5-2.1,0
		c-0.6,0.6-0.5,1.6-0.3,2.4c0.3,1.7,1.3,3.2,1.7,4.9c0.1,0.3,0.2,0.8,0,1.1c-0.7,1-1.6,2.1-2.7,2.8c-1.7,1.1-3.6,2.6-5.7,2.5
		c-1.5,0-2.7-1.6-3.8-2.7c-0.7-0.7-1.1-1.7-1.6-2.6c-0.1-0.3-0.1-0.7-0.1-1.1c0-2.4-0.3-4.7,0.1-7.1c0.2-1.3,1-2.5,1.6-3.7
		c0.6-1,1.2-2,2-3c0.5-0.6,1-1.3,1.8-1.7c0.6-0.3,1.4-0.2,2-0.1c0.5,0.1,1.4,0,1.3,0.5c-0.1,1.1-1.2,1.9-1.7,2.9
		c-0.1,0.3-0.1,0.7-0.1,1.1c0,0.7-0.1,1.4,0.1,2c0.3,0.6,0.7,1.3,1.4,1.3c0.8-0.1,1.3-1,1.8-1.6c1-1.4,2-3,2.6-4.6
		c0.3-1,0.2-2,0.1-3c0-0.5-0.2-1-0.5-1.5c-0.2-0.4-0.6-0.7-1-0.9c-0.3-0.2-0.7-0.1-1-0.1c-2,0-4.1-0.4-6,0.1
		c-1.5,0.4-2.9,1.4-3.8,2.7c-1.9,2.6-3.7,5.5-4.6,8.6c-0.7,2.6-0.1,5.4-0.1,8.1c0,0.7-0.1,1.4,0.1,2.1c0.7,1.6,1.6,3.2,2.6,4.6
		c0.5,0.8,1.2,1.6,2,2c1.5,0.8,3.1,1.6,4.7,1.6c1.7,0,3.3-1,4.9-1.7c1.3-0.6,2.2-2.4,3.6-2.1c1.1,0.3,0.9,2.2,1.2,3.3
		c1.6,6,3.8,11.9,4.7,18c0.7,5,0.7,10.1,0.1,15.1c-0.3,3-1.3,6-2.7,8.7c-0.8,1.6-2.4,2.6-3.8,3.8c-1,0.9-2.1,1.6-3.2,2.2
		c-1.2,0.6-2.4,1.4-3.7,1.6c-2,0.4-4.1,0.6-6.1,0.1c-2.8-0.7-5.2-2.3-7.7-3.7c-0.7-0.4-1.4-1-1.7-1.8c-0.2-0.5,0.1-1,0.3-1.5
		c0.6-1.1,1.5-2,2-3.1c1.2-2.4,2.9-4.7,3.4-7.4c0.7-4,0.6-8.1,0-12.1c-0.6-4-1.9-7.9-3.5-11.6c-1.9-4.5-4.4-8.8-7-13
		c-0.7-1.1-1.6-2-2.8-2.7c-0.5-0.2-1.1,0.1-1.5,0.3c-0.4,0.2-0.8,0.6-0.9,1c-0.2,0.7-0.3,1.4,0,2.1c0.7,1.7,2,3.2,2.7,4.9
		c0.3,0.6,0.2,1.4,0,2.1c-0.2,0.6-0.7,1.1-1.3,1.3c-0.5,0.2-1.1-0.1-1.5-0.3c-0.5-0.3-0.9-0.8-1.3-1.3c-1.4-1.9-2.9-3.8-4-6
		c-1.1-2.1-2.2-4.3-2.6-6.7c-0.4-2.3-0.4-4.8,0-7.1c0.1-0.6,0.7-1.2,1.3-1.3c1.3-0.3,2.7-0.2,4,0c0.3,0,0.6,0.3,0.7,0.6
		c0.7,1.3,1.1,2.8,1.8,4.2c0.1,0.1,0.3,0.1,0.4,0c0.5-0.1,1.1-0.2,1.5-0.5c0.4-0.2,0.7-0.6,0.9-1c0.2-0.3,0.1-0.7,0.1-1
		c0-0.7,0.1-1.4-0.1-2c-0.3-1-1-1.8-1.6-2.6c-0.3-0.4-0.6-0.8-1.1-1.1c-1.2-0.7-2.4-1.2-3.7-1.6c-0.4-0.1-0.9,0-1.3,0.1
		c-1.8,0.7-3.8,1.2-5.4,2.4c-0.9,0.6-1.5,1.7-1.7,2.8c-0.4,3-0.6,6.1,0,9.1c0.6,3.1,2,6,3.6,8.7c1.7,3,4,5.7,6.3,8.3
		c0.3,0.4,1,0.5,1.5,0.5c1.3,0.1,2.7,0.3,4-0.1c0.8-0.3,1.3-1.2,2-1.7c0.2-0.1,0.5-0.1,0.6,0c0.8,0.8,1.7,1.6,2.1,2.6
		c1.5,3.8,2.9,7.7,3.6,11.7c0.5,3,0.5,6.1,0.1,9.1c-0.2,1.7-1,3.2-1.7,4.8c-0.9,2-1.9,4-3,5.9c-0.2,0.3-0.4,0.5-0.8,0.7
		c-0.3,0.1-0.8,0.2-1.1,0c-0.7-0.4-1.3-1-1.8-1.7c-0.6-0.8-1.3-1.6-1.6-2.6c-0.3-1.3-0.3-2.7-0.1-4.1c0.1-1.1,1-2,0.8-3.1
		c-0.2-0.9-1-1.6-1.7-2.3c-0.1-0.1-0.5-0.2-0.6,0c-0.9,1-2,2-2.4,3.3c-0.5,1.9-0.6,4.1-0.1,6c0.4,2,1.5,3.9,2.7,5.7
		c0.5,0.7,1.5,0.9,2,1.6c0.1,0.2-0.3,0.4-0.5,0.6c-3.3,1.8-6.6,3.6-10,5.1c-2.5,1.1-5,2.1-7.6,2.5c-2.7,0.4-5.4,0.4-8.1,0
		c-4-0.5-8-1.4-11.8-2.6c-1.7-0.6-3.4-1.5-4.7-2.8c-1-1-1.6-2.5-1.8-3.9c-0.4-2-0.4-4.1,0-6.1c0.4-1.9,1.4-3.6,2.3-5.4
		c1-1.9,2.5-3.5,3.4-5.5c0.3-0.6,0.5-1.6,0-2.1c-0.6-0.6-1.6-0.7-2.4-0.5c-0.9,0.3-1.4,1.2-1.9,2c-1.4,2.1-2.7,4.3-3.7,6.6
		c-0.7,1.6-1.4,3.2-1.7,4.9"/>
</g>
<g>
	<path class="st1" d="M986.2,596.4l-2.2-2.2l0,0.6l-1.6,0.5l-2.1,1.6l-2.8,4.4l-1.3,3.5l-0.7,3l0.8,2.7l1.6,2.3l2.4,2.2l7.2,4.7
		l1.2,1.5l0,0.6l-0.5,0.9l-3.1,2.8l-3.2,2.1l-5.8,2l-2,0.1l-0.4-0.2l0.3-0.5"/>
</g>
<g>
	<path class="st1" d="M1014.3,618.4l1.8-0.1l-1.1,0.5L1014.3,618.4l0.6,0"/>
</g>
<g>
	<path class="st1" d="M1047.3,596.1l-1.2,0l-1.6-0.9l-0.3-0.9l-0.6-0.4l-3.2,1l-1.9,1.2l-3.1,3.7l-5.4,7.8l-4.5,8.6l-0.4,1.7
		l0.2,1.2l1.6,2l3.2,1.9l5,0.8l11.3-1l7-1.4"/>
</g>
<g>
	<path class="st1" d="M1079.5,606.5l4.2-3.7l0.2-1l-1.9-1.5l-1.4-0.7l-2.3-3.1l-3.4,0.6l-4.6,2.2l-1.7,1.1l-2.5,3.2l-0.8,1.9
		l-0.7,3.3l0.2,1.5l2.8,4.1l1.8,1.4l2,0.6l4.1,1l2,0l2-0.4l4.1-1.6l5.8-3.3l2-2.4l0.3-1l-0.9-1.5l-2.2-1.8l-4.1-2.3l-2.8-0.9"/>
</g>
<g>
	<path class="st1" d="M1108.1,614.3l-1.7,3.3l0.6,0.5l0.2-0.3l0.2-15l0.5-3.2l0.9-2.5l0.4-0.3l0.4,0.3l0,1.2l1.3,7.2l1.4,5.1
		l1.7,1.2l2.2,0.3l1.1-0.1l1.7-1.1l4.8-5.7l2.8-4.4l1-0.6l3.5-4.3l0.7-0.3l-0.8,1l0,1.5l0.8,7.5l1.1,6.1l0.6,1.5l1.3,1.8l1.7,1.7
		l0.8,0.2"/>
</g>
<g>
	<path class="st1" d="M537.8,703.8l-1.3-0.4l-1.2-1.2l0.4-2.2l-0.2-1.6l-1.1-1.9l-1.7-1l-2.1-0.6l-2.4-0.2l-5.6,0.7l-3.7,1l-3.4,2
		l-4,4.8l-1,1.7l-1.6,4l-0.3,2.1l-0.2,4.1l0.5,1.9l1.8,3.8l4.2,4.4l1.8,1.3l3.8,1.4l3.9,0.6l6.2-0.4l1.7-0.6l4.1-2.8l1.1-1.3
		l1.6-3.1l0.3-1.5l-0.1-3l-0.8-5.2l-5.3-11.9l0-3.7l0.5-0.9l0.7,0.1l0.1-0.3"/>
</g>
<g>
	<path class="st1" d="M547.8,685.8l1.5-0.5l-0.3,0.3l1.6,0.7l4.9,1.4l11.9-0.1l10-0.6l2.8-0.6l2.3,0l-1.3,1.1l-2.5,4.3l-4.8,7
		l-2.3,4.7l-4.8,12.9l-1.3,4.4l-0.9,5l0.3,2.3l0.6-0.1"/>
</g>
<g>
	<path class="st1" d="M551.8,709.5l2.5,0l12.8-1.1l23.7-4.2l3.8,0.1l0.4,0.1l-0.6,0.3"/>
</g>
<g>
	<path class="st1" d="M633.4,692.8l1.4-1.6l-0.6,0.6l0.9,6.1l0.4,13.3l-0.1,6.6l0.9,2.1l0.1-0.9l0.3,0.4"/>
</g>
<g>
	<path class="st1" d="M665.9,701.3l-0.8-0.5l-0.5-1.1l0.6-1.4l0.3-2.1l-0.2-1.4l-1.1-1.3l-1.9-1.1l-2.5-0.1l-2.3,0.6l-1.3,0.8
		l-3,2.5l-2.3,3.1l-0.7,1.6l-1.1,5.5l-0.3,3l0.2,2.3l0.7,2.6l1.6,3.3l2.8,2.4l2.3,1.2l4,0.6l1.5-0.2l3.2-1.1l3.9-2.4l1.4-2.3
		l-0.7-0.7l-0.4-1.1l-0.4-2.8l0-2.5l1-7.6l-1-1.1l-1.2-0.5l-0.2-0.3l0.4,0.2l0.1-0.4l0,0.2"/>
</g>
<g>
	<path class="st1" d="M699.9,700.9l3.9-6.3l0.4-1.9l-0.5-1l-2.8-0.9l-4.2,0.2l-6.3,1.7l-2.3,0.9l-0.9,0.7l-1.9,2.2l-2.8,4.6
		l-0.9,3.9l-0.3,5.8l0.5,3.2l1.1,3.1l0.8,1.2l0.9,1.3l2.3,1.9l1.1,0.7l1.3,0.1l4.9-0.9l1.9-1l6.9-5.3l1.6-2.1l2.6-6.8l2.2-7.1l0-2.1
		l-0.7-2l-1.9-0.9"/>
</g>
<g>
	<path class="st1" d="M754.3,701.4l-1.6-1.5l0.6,0.2l0.9-0.4l1.7-3l1.5-1.8l1.6-1.6l2.4-1.3l3.1-0.8l6-0.2l2.6,0.4l1.9,1.1l1.3,1.6
		l0.6,7.2l-0.5,8.1l-2.3,10.2l-0.9,2.7l-1.6,2.3l-5,4.3l-3,2l-2.1,0.9l0.7-1l-0.5-4l0.6-2.3l2.5-6.1l1.7-2.2l0.9-0.3l1.1,0l2.6,0.7
		l2.7,0.1l2.5,1.2l2,0.3l3.1,2.7l3.7,5.4l1.3,0.8l0.7-0.3"/>
</g>
<g>
	<path class="st1" d="M807.6,705.4l-0.5-3.1l1.7-2.1l0.7-1.4l0.7-1.9l-0.5-0.6l-3.3,0.1l-5.1,2.4L799,701l-1.1,1.5l-1,4.3l-0.1,6.7
		l0.5,6.1l0.6,2.6l1,2l1.7,1.4l2.1,1.1l2.5,0.8l3,0.2l3.3-0.8l4.9-1.9l1.1-0.7l1.3-1.7l-0.9-8.5l-1.2-5.4l-2-4.4l-3-4.4l-0.4,0.2"/>
</g>
<g>
	<path class="st1" d="M868.5,707.7l-0.2,0l0.3-0.8l0.7,0l1.8-1l5.2-3.3l4.7-1.7l3.9-0.7l1.4,1.1l0.8,1.7l0.1,1.1l-0.4,2l-1.8,3.6
		l-2.1,1.8l-7.6,8.3l-1.4,2.1l-0.2,1.2l1.3-0.4l0.8,0.3l3.7,0l5.6-1.1l2.9,0.8l1.8,4.4l0.5,2.8l-0.2,4.5l-1.1,4l-0.7,0.8l-2.9,1.8
		l-2,0.6l-2.1,0l-5.6-1.9l-2.6-1.3l-1.8-1.4l4-4.8"/>
</g>
<g>
	<path class="st1" d="M920.4,707.6l-0.5-3.3l-0.2,0.5l-1.6-0.9l-1.8-0.1l-5.3,1.8l-1.8,1.5l-3.5,2l-1.7,1.7l-1.9,3.3l-0.7,2.5
		l-0.2,2.9l0.2,7l0.7,3.1l1.4,2.7l0.8,0.7l2.1,0.9l2.4-0.2l10.4-5.2l3.5-2.3l2.4-4.7l1.4-6.8l-0.2-7.6l-0.1-0.8l-1.3-1.6l-2-0.5"/>
</g>
<g>
	<path class="st1" d="M969.5,695.9l1.9-3.6l1.2-0.5l0.1,0.4l-0.6,1.2l-0.7,3.2l-4.4,10.6l-0.9,4.2l0,1.3l0.6,2l1.2,1.4l5.1,3.1
		l3.9,0.4l2.6-0.8l1.5-1"/>
</g>
<g>
	<path class="st1" d="M991,699.6l-0.5,1.5l-2.2,13.9l-0.9,9.2l-1,6.2l0,1.2l0.6,0.2"/>
</g>
<g>
	<path class="st1" d="M1021.6,702.7l3-7.7l-0.8,0.8l-5.4,2.2l-5.4,3.6l-8.6,8l-2.4,2.6l-2,2.8l-1.7,2.7l-1,2.4l-0.3,1.9l0.3,1.7
		l0.9,1.5l1.2,0.8l3.7,1l2.6,0.1l3.2-0.1l3.5-0.9l14.3-7l2.5-1.7l3.8-3.9l0.6-1.4l-0.4-2.2l-1.6-2.8l-0.7-0.7l-0.8,0.2l-2.3-1.1
		l-2.1-0.5"/>
</g>
<g>
	<path class="st2" d="M982.2,69.3l-0.5-0.5l-0.7-0.1l-0.9,0.4l0.2,0.2l-0.1-0.5l0,0.6l5.7,2.8l13,1.8l10.5,0l9.2-0.7l11.3,0.4
		l22.8,2l9.7,0l2.3,0.3l2.3,1l7.4,0.5l4.8,1.8l1.4,1.2l1.4,3.4l0.9,3.7l2,6.1l12.9,32.8l2,7.1l3,20.2l1.3,20.7l1.2,10.7l0.4,13.8
		l0.1,20.8l-0.1,18l-0.7,11.3l-2.6,24.4l0.5,5.2l-0.2,4.4l-0.4,1.5l-0.7,7.6l-0.5,9.5l-1,3.9l-0.1,1.9l-0.2-1l-0.3,0.9l-2.4,3.1
		l-1,1l-1.1,0l-1.1,0.6l-0.9,1.6l-1.2,0.9l-7.1,3.4l-3.9,1.7l-1.5,0.4l-1.5-0.1l-1.5,0.5l-1.6,1.1l-1.8,0.6l-6.2,0.9l-1.7,1.3
		l-1.9,0.7l-4.5,0.3l-4.3,0.9l-9.2,1.3l-2.3-0.4l-1.3,0.7l-5.5,0.2l-2.1,1.1l-1.5-0.2l-1.2,0.2l0.2-0.6l0.2-0.1l0.3,0.5l2.4-2.3
		l1.6-2.2l3.9-6.8"/>
</g>
<g>
	<path class="st2" d="M1107.4,213.8l0.1-0.3l0.6-0.2l2.4,0l4.9,0.6l3.1-0.8l15-1.3l10.3,0.1l4-0.4l7.2-0.2l2.7,0.2l9.4-1.1l2.1,0.3
		l3.9-0.3l5.1,0.4l1.7-0.1l0.7,0.4l1.1,0l0.2,0.3l0.6,0l0.2,0.4l0.2-0.2l-0.1,0.3l-0.2-0.2l0,0.4l0.2-0.5l-0.2,0.1l0-0.6l0.3,0.8
		l1,0.1l8.5,0.2l1.6-0.3l1.3,0.4l0.9-0.3l10.8-0.2l13.6-1.1l7.2,0.1l2.1-0.4l6.2,0l13.8,1.6l4.9,0.2l2.5,1.2l2.5,0.5l2.5-0.3
		l2.6,0.3l7.8,1.5l2.3,0l7.9,1.2l3.3,0.2l4.5,1.2l2.3,0.1l2.7,0.7l0.3-0.2l0.9,0.4l1-0.2l0.3,0.6l0.6,0.1l0.7-0.6l1.1,0.2l0.5-0.3
		l3-0.3l1.2-0.4l0.7,0.3l10.4-1.7l6.7-0.4l2.5-0.6l2.8-0.2l7.3,0.1l3.6-0.6l1.7,0.6l8.4-0.2l3.6,0.2l1.8,0.4l0.7-0.3l0.6,0.2
		l-0.1,0.5l0.2-0.5l-0.2,0.5l-0.1-0.8l0.1,0.4l-0.3,0l0-0.3l0.3,0l0.1,0.8l-0.3-0.5l-8.9-2.4l-2.3-1.1l-1.9-1.3l-3.2-3l-2.5-3
		l-5.1-7.5l-4.9-4.8l0.1,0.4l0-0.5l0.1,0.4l1.1,0.7l10.2,3.6l7.4,3.4l8.2,6.2l1.1,2l-0.4,0.5l-0.1,2.7l-0.9,0.7l-0.6,1.5l-3.1,4.3
		l-1.4,3.6l-2.1,4l-1.9,6l-2.2,5.1l-1.2,5.5l0.2,0.3l0.5-2.5l-0.4-1.6l-2.8-3.6"/>
</g>
<g>
	<path class="st2" d="M1400.7,188.3l-2.7,2l1.8,0.2l0.6,0.3l0.1,0.4l0.8-0.6l2.4-5.3l2.4-11.2l1.8-37.3l-0.1-2.6l-0.6,1.8l2.4,11.7
		l2.5,8.8l2.5,5.9l5.4,7.8l6.8,7.9l2.4,2.4l6.6,5.5l4.9,3l5.7,2.5l2.7,0.7l2.1-0.5l2-7l0.8-9.8l-1.3-32.5l-0.5-2.4l-1.3-3.4
		l-4.7-5.4l0.3,0.7l-0.3,1.7"/>
</g>
<g>
	<path class="st2" d="M1479.2,173.5l0.9-0.8l2.4-1.1l1.1-1.9l0.5-4.7l-0.7-1.5l-1.8-2l-3.2-1.2l-0.9,0l-1,0.1l-3.1,1.3l-2.6,2.3
		l-1.5,2.4l-1.1,2.8l-1.6,5.6l0.1,2.1l0.8,2.8l1.5,2.3l3.3,3.2l4.4,1.8l1.5,1l1.7,0.4l4.5-0.6l3.7-2.2l1.3-1.7l0.4-1.9l0-2.3
		l-0.4-2.3l-2-6l-0.5-4.4l0.1-3.1l-0.6,1.1l0.7,3.8l1.5,4.1l2.5,3.6l4.3,3.9l2.5,1.8l3.2,1.2l2.9,0.3"/>
</g>
<g>
	<path class="st2" d="M1507.1,164.7l3.4-0.7l0.8,0.4l0.2,0.4l0.1,1.2l1.6,4.9l2.8,12.6l0.6,0.8l0.6-4.7l0.2-4.7l1.4-8.1l0.8-1.7
		l2.5-3.3l3.5-1.2l2,0.4l1.8,3.3l2.2,8.9l1.8,4.4l3.5,4.4l2.9,2.5l0.8,0.2l3-1.2l1.9-1.2l0.9-1.3l4.3-9l5.5-15.2l1.1-1.8l1-0.5
		l0.5,0.5l-1.6,3.4l-0.5,6.2l0.3,3.8l1.1,4.3l10.1,21l1.3,1.4l1.2,0.4l0.5-0.1l0-0.9"/>
</g>
<g>
	<path class="st2" d="M1581,173.4l-1.5-0.2l0.9,1.1l4.2,1l12.1,0.8l4.3-0.7l1.9-0.6l9.8-4.8l1.2-1.3l-3.5-3.7l-2-3.4l-2.5-2l-1-0.4
		l-1.1,0l-5.5,1l-5,3.4l-1,1l-2,3l-2.9,5.7l-2,5.7l-0.1,6.3l1.3,4.1l1.7,2.1l4.8,2.4l3.5,1.4l4,1l7.5,1.1l3.7,0.1l8.6-0.7l4.2-0.8
		l3-1.1l1.5-1.4"/>
</g>
<g>
	<path class="st2" d="M1397,231.1l-1.8,0.9l1,0.9l3.1,0l1.4-0.5l0.5-0.7l0.1-0.8l-0.3-1.2l-1.9-2.2l-1.3-0.1l-2-0.8l-0.7,0.1
		l-2.3,0.7l-2.7,1.5l-2.1,2.4l-2.2,5.8l-0.5,2.1l-0.1,3.1l1.4,4.1l1.1,1.4l4.8,4.3l2.5,1.1l1.2,0.1l2.5-0.3l3-1.2l1.6-0.7l3-2.2
		l3.8-4.4l1.2-2.7l0.1-4l-1.2-3.8l-1.3-2.9l-1-1.5l-0.2,0.5l0.5,0.1l0.5,0.7l3,6.5l1.8,2.9l4.1,4.4l3.1,2.7l4.2,3.1l3,1.5l3.9,0.2
		l1.7-0.8"/>
</g>
<g>
	<path class="st2" d="M1431.3,233.2l6.2-2.5l0.6,1.2l-0.1,1.2l0.5,2l2.5,6.7l2.3,8.7l0.4,0.3l0.6-0.8l1.9-10l2.2-6.8l1-2.1l1.2-1.4
		l4.5-1.9l0.8-0.1l3.1,0.7l2.2,2.4l1.3,2.7l2,5.8l3.1,6.3l3.4,4.8l1.1,1l0.3,0.8l0.8-0.7l0.9,0.6l0.1-0.6"/>
</g>
<g>
	<path class="st2" d="M1502.4,243.2l0.3-1.5l-0.4-5.4l-1.6-4.3l-4.1-1.6l-1.9,0.1l-4.8,2.1l-2.4,1.6l-0.9,1l-3.1,4.7l-0.9,2.8
		l-0.1,1.6l0.6,4.4l1.1,3.1l3.3,3.8l3,1.9l1.7,0.6l3.6,0.4l1.8-0.2l3.7-1.3l1.9-0.9l1.6-1.2l3.5-3.7l1.3-2.3l0.6-3l-0.5-8.9
		l-1.1-10.6l-1.4-8.6l-1.1-3.3l-0.6-0.9l-0.7-0.4l-0.5-0.7l-0.3,0.2l0.4-0.1L1504,224l1.2,7.2l0.6,2.5l1.6,4.3l3.5,6.2l5.4,7.7
		l5.8,4.7l7.6,3.3l3.8,0.4l1.4-0.4"/>
</g>
<g>
	<path class="st2" d="M1571.8,244.7l3.3-2.9l0.6,0.8l-0.2,0.5l0.9,0.3l3.3-1.5l2.3-2.9l2-4.6l-0.4,0.6l0.2,0.8l0.9,1l2.2,4.5
		l6.5,10.7l2.7,5.7l1.3,4.1l0.2,3.9l-0.3,2.9l-0.8,3.5l-1.1,1.5l-2.6,2.6l-3.4,2.2l-6.8,1.9l-4.7-1.5l-3.6-2.4l-3.7-6.1l-1.3-5.5"/>
</g>
<g>
	<path class="st2" d="M1586.4,212.6l-2.4-1.6l0.1,1l1.4,2.6"/>
</g>
<g>
	<path class="st2" d="M1615.9,247.1l-1.1,0.6l-1.4,0.1l0.8-1.6l-0.1-1.6l-0.9-0.4l-0.8,0.5l-2.3-0.2l-4.1,2.4l-1.5,1.6l-2.1,1.6
		l-0.9,2l1.1,6.2l2.3,5.1l3.2,2.8l2.3,0.9l2.5,0.4l5,0l2.6-0.6l3.6-2l1.9-2l1.2-1.6l0.3-2.7l-0.3-2.5l0.8-1.7l-0.8-3.7l-0.6-1.1
		l-2-2.1l-2.8-1.9l-3.8-1.6l-3.6-0.2l-5.3,0.5l-2.3,1.1l-0.7,0.9"/>
</g>
<g>
	<path class="st2" d="M1629.3,216.2l-3.7,0.3l-2.6,0.5l2.5,2.9l2.7,5.2l4.6,18.4l-0.2,11.4l0.5,3.8l0,3.5l-0.3,3.1l-0.1,0.5l-0.3,0
		l0.1-0.5l0.3,0.2l-0.1-3.6l0.6-3.3l1-3.2l1.6-2.4l2.3-1.7l6.7-3.3l4.2-0.3l4.7,0.5l1.7,0.4l2,0.9l0.8,1.4l-0.1,1.7l-0.6,2l-3.4,4.7
		l-1.8,1.7l-4.5,2.6l-6.7,3l-2,0.3l-2-0.9l-3.7-3.5"/>
</g>
<g>
	<path class="st2" d="M1392.6,271.8l0.4-1.2l-0.3,1.2l1,4.4l0.8,22.6l0.7,11l0.3,1.9l2.6,5.1l1.8,1.9l2.8,1.5l3.6,1l4.2,0.6l5.9-0.4
		l6.1-1.4l2.4-1.6l0.8-1.3"/>
</g>
<g>
	<path class="st2" d="M1391.4,297.3l3.3-0.8l4-1.6l1.6,0.3l1.8-0.2l2-0.8l4.7-0.7l4.7-0.5l7.4,0.1l3.5,1.3l0.4-0.7l1.7-0.8l1.1-0.2
		l1,0.3l2,2.3l2.3,5.5l1.1,6.6l-0.4,3l0,5.2l-0.4,1.1l0.4-0.1l-1.8-1.9"/>
</g>
<g>
	<path class="st2" d="M1440.4,273.6l1.6-0.8l1.7-0.4l0,0.7l-0.4,0.4l0.1,0.6l2,2.2l0.8,2.1"/>
</g>
<g>
	<path class="st2" d="M1461.2,278.1l-1.7,0.5l0.7,0l-0.2,0.9l0.6,3.2l0.8,9.4l0.1,4.1l-0.4,8.3l0.7,12.3l1,6.5l0.8,1.7l0.6,0.6
		l3.2,1.3l4.1,0l4.3-1.9l5.9-1.9l3.2-1.5l1.7-1.4l0.3-1.3"/>
</g>
<g>
	<path class="st2" d="M1452.8,304.7l-3.2,1.8l2.4-1l4.3-0.5l3.3,0l6.1-1.5l5.8-0.9l6-0.3l4.4-0.6l7.5-17.2l0.7-1.1l2-1.9l-0.6,0.9
		l0.1,1l2.6,13.2l1.7,6.3l3,8l1.4,6.5l3.1,5l0.5,0.3l1,0l-0.1-0.9l-0.2,0.7l-0.2-0.2l0.2,0.5h0.3l0.2-0.4l-0.6-1.8"/>
</g>
<g>
	<path class="st2" d="M1518.1,300.5l3.2-1.4l-0.4,0.4l-0.5,0l0.1,0.5l0.6,0.7l2.3,1.2l3.8,1.2l3.2,0.4l6.2,0l6.6-0.8l3.9-1.1
		l3.2-0.4l3.6-1.6l1.4-1.1l-0.2-0.9l-1.8-1.9l-0.8-2.1l-1.3-1.6l-3-0.7l-3.1,0.2l-4.9,0.9l-2.3,0.8l-2.9,2.1l-5.1,2.5l-3.3,4.7
		l-2,4.3l-1.3,5.4l0.7,3.8l1.7,2.4l1.3,1.1l3.9,1.9l2.6,0.6l5.8-0.1l2.7,0.5l7.7-1l12.6-0.6l0.8-0.5l-1.7-1"/>
</g>
<g>
	<path class="st2" d="M1135.9,562.8l-3-1.8l-0.5,0.1l0.8,0.4l2.3-0.3l15.7,1.3l6.3,0.3l18.1-0.1l7.3,0.6l3.9,0.8l2.8,1.4l0.4,1
		l-0.3,0.6l-0.6,7.8l-0.1,6.4l-1.7,10.9l0.2,9.1l0.8,13.3l2.7,22l0.9,11.2l0.9,16.2l0.1,17.1l-0.9,16.9l-2.3,17.9l-0.4,15.8
		l-0.8,6.7l0.2,3.6l-0.4,5.5l-0.8,4.9l-2.1,6.5l-1.8,7.6l-0.6,0.8l-0.4,2.4l-0.3,0.7l0-0.4l0,1.7l0-0.9l-0.8,0.1l-3.6,1.1l-1.7,1.2
		l-5.8,1.8l-7.6,1.4l-27.3,2.9l-15.3,0.8l-4.4-0.6l-1.9,0.3l-1.6-0.2l-3.5-1.9l1-0.2l-0.1,0.4l1-0.6l0.8,0.3l0.6-0.8"/>
</g>
<g>
	<path class="st2" d="M1194.4,659l-2.4-0.8l0.2-0.2l0.8,0.6l-0.4,0.3l-0.1-0.4l0,0.4l0.3-0.4l0.3,0.5l2.9-0.3l6,0l7-1.4l9.2-1
		l6.6-1.4l7.1-0.9l8.2-1.9l13.7-2.2l32-6.6l21.2-2.7l20.7-1.1l14.7,0.3l2.2-0.6l2.5-0.1l2.6,0.5l4.3,0.2l4-0.4l6.7,0.7l3.4-0.1
		l1.5,0.3l2.4-0.2l-0.7,0l-0.3,0.7l0.5-0.4l-0.1-0.2l0,0.4l-0.1-0.6l0,0.9l-0.7-1.1l-3.9-2.9l-3.2-1.8l-3.8-1.6l-7.7-5.7l-6.2-6.4
		l-6.5-8.1l-1.2-0.6l-0.6-1.2l0.2,0.5l0.2-0.2l0.2,0.3l0-0.4l-0.3,0.2l2,1.1l5.6,2.2l8.1,2.3l11.5,4l3,1.4l9.4,3.1l6.8,3l-0.7-0.5
		l-0.2,0.4l0.2-0.2l0.2,0.2l-0.8,0.4l-2.4,7.1l-16.4,36.4l-3.8,10.6l0.6-0.9l-0.1,0.6l0.1-0.2l0.1,0.6l0.3,0.2l-0.6-0.7"/>
</g>
<g>
	<path class="st2" d="M1449.9,608.8l-0.7-1.1l-0.5-2.7l-1.1-1.2l-1.7-0.6l-3.2,0l-4.1,1.5l-7.2,4l-3.9,2.9l-3.7,3.5l-3.5,4l-1.2,2.1
		l-2.1,7.4l-0.8,5.2l0.1,2.6l1.3,6.9l0.8,2.5l1.2,2.1l1.6,1.7l2,1.4l2.6,1.3l3.1,1l6.3,1.4l9.1,0.9l7.9-0.5l6.7-1.5l4.6-1.9"/>
</g>
<g>
	<path class="st2" d="M1484.3,634.9l1.5-3.1l-0.2-0.7l-0.2,0.2l-0.2-1.6l-2-1.2l-4.2-0.2l-3.8,1.8l-3.2,2.5l-0.5,0.9l-0.3,3.5
		l0.4,6.2l0.5,2.3l0.5,1l5.9,4.8l1.8,0.9l2.1,0.5l3.8-0.4l2.6-0.9l2.4-1.4l1,0l2.3-2.3l2.4-7.2l-0.2-3.9l-0.8-2l-0.6-0.6l-1.6-0.5
		l-1.7-0.3l-2.9,0.1l-1.7-0.4l-1.2,0.2l-1,1.1l-0.5,0.1"/>
</g>
<g>
	<path class="st2" d="M1508,651.8l-0.1,0.4l-0.5-1.7l0.3-4.3l3.3-18.2l1.3-4l0.8-0.9l2.1-1.3l2-0.6l1.2,0.4l1.8,1.7l4.1,6.9l2.6,7.2
		l2.7,12.9l1.7,4.1l0.6,0.3l1.1-0.3"/>
</g>
<g>
	<path class="st2" d="M1539.3,610.4l3.9-2.6l-0.5-0.5l-0.6,1.2l0.1,1.5l1.3,2l4.5,9.1l2.1,7.7l0.8,7.9l-0.6,15.5l0.1,0.4l0.6-1
		l0.6-2.5"/>
</g>
<g>
	<path class="st2" d="M1531.5,635.2l2.9-3l0.2,0.8l-0.8,0.5l2.2-0.1l29.6-3.3l0.1,0.2"/>
</g>
<g>
	<path class="st2" d="M1589.5,630.5l1.1-4l-0.6-0.6l-0.6-3.8l-1-2.2l-1.6-1l-1.2-0.3l-4.3-0.1l-4,0.7l-1.7,0.7l-1.7,2.3l-2.4,4.4
		l-0.3,1.2l-0.9,5l-1.1,11l0.1,1.9l1,3l0.9,1l1.2,0.6l2.3,0.7l2.5,0l2.1-0.7l6.4-3.6l2.8-3.7l0.8-3.4l0.3-2.9l-0.3-5.6l-0.7-4.9
		l0,0.6l3.3,7.9l1.7,5.2l3.1,6.3l2.5,3.4l2.7,1.3l0.7-0.7"/>
</g>
<g>
	<path class="st2" d="M1622.7,617.1l1.1-2.3l-0.4,1.2l-0.5-0.1l-7.2,5.9l-0.9,1.2l-1.4,3.1l-0.3,2l-0.1,5.4l0.3,4l1.4,8.1l0.7,1.1
		l3.8,0.9l4.4-0.5l3.2-2.8l1.2-1.6l2.2-4.2"/>
</g>
<g>
	<path class="st2" d="M1630.9,604.9l-4.2,1.2l1.5,0.2l1,0.5l1.5,4.1l1.9,5.6l1.7,7l4.6,13.1l2.1,8.3l1.3,2.9l0.8,1.1l1.3,1.1
		l1.3,0.2"/>
</g>
<g>
	<path class="st2" d="M1631.4,629.9l-1.8-1.4l-0.6-1.1l8.3-1.8l33.4-3.3"/>
</g>
<g>
	<path class="st2" d="M1354.3,713.4l-2.6,0l1.1,0.4l-0.4,0.8l-0.8,11.3l-0.9,5.4l-2.8,11.6l0.2,0.3l0.3-0.4l1.2-2.5"/>
</g>
<g>
	<path class="st2" d="M1349.4,695.6l-0.1-0.7l0.5,0.3l-0.2,0.8l0.4,2.2"/>
</g>
<g>
	<path class="st2" d="M1368.8,716.5l2.2-3.8l-0.3-0.2l-0.7,2.1l0.3,5.9l0.1,16.2l0.6,6.2l0.1-1.1l4-12.2l6.2-14.8l1.1-1.5l2-1.9
		l1.6-0.4l0.4,0.2l1.1-0.6l0.9,0.1l1.1,1.1l1.1,2.5l1,3.7l1.8,11.1l1.4,5.1l1.4,3.6l-0.3,0.9"/>
</g>
<g>
	<path class="st2" d="M1422.2,704.9l4.7-9.4l0.8-4.6l-1.5-2.8l-0.8-0.9l-1.7-1l-2-0.3l-1.1,0.4l-1.4,1.1l-1.6,1.9l-0.7,1.3l-2.1,9.9
		l-0.3,10.5l0.5,13.9l1.4,16.9l0.6,3.7l0.9,3.1l1.1,2.2l3.6,6.3l2.4,2.9"/>
</g>
<g>
	<path class="st2" d="M1410.8,737.4l2.5-1.5l2-0.9l2.9-0.8l1.6-1l9.7-2.5l2.4-0.4l2.3,0.1"/>
</g>
<g>
	<path class="st2" d="M1459.4,720.4l-0.6,0l-0.7-0.6l0.2-1.2l-0.2-1.2l-1.7-2.4l-2.3-0.5l-1.8,0.2l-2.1,0.9l-2.4,4.1l-1.7,7.3
		l-0.3,2.7l0.7,3.4l1.2,2l2.6,2.1l2.1,1.1l1.1,0l2.7-0.6l8.2-5.8l0.1-1.5l-1.5-6.6l-1-2.9l-2-3.5l-0.7-0.5l-1.9-0.3l-0.4-0.3
		l0.4-0.5"/>
</g>
<g>
	<path class="st2" d="M1475.9,709.8l-0.9,1.6l-0.6,2l0.9,0.8l2.9,11.1l3.7,8.5l-2-1.4l-1.3-1.9l-1.7-3.2l-1.6-5.1l-1.1-4.6l-0.3-4.4
		l0.5-3.3l1-2.2l1.5-1.5l3-1.5l2.1-0.3l2.3,0.7l1.2-0.2l2.2,1l3.5,2.6l3.8,4.3"/>
</g>
<g>
	<path class="st2" d="M1503.7,699.8l4.3,16.8l1.1,6.3l1,10.3l0.3-0.9l-0.1-4.6l0.6-6.3l0.3-7.6l1.5-7.9l1.3-2.7l2.3-1.5l1.7-0.3
		l0.9,1.3l1.1,2.7l2,9.3l1.8,3.6l1.8,1.8l4.9-1.9l1.5-1l2.6-2.3l2.5-3.4l2.8-3l1.2-0.7l0.5,0l-0.5,0.5l-0.3-0.1l0,0.4l1,2.1l0.4,2.5
		l3.1,8.9l3,7l3.7,5.9l2.9,3.4l2.4,0.4l0.4-0.4l-0.7-1.4"/>
</g>
<g>
	<path class="st2" d="M1573.3,714.7l7-4.2l0.3-2.8l-1-2.1l-1.6-1.7l-1.4-0.7l-1.6-0.3l-1.6,0.2l-1.5,0.6l-1.2,0.6l-2.3,1.9l-1.5,2.8
		l-1.1,4.4l-0.9,6.8l0.3,2.2l0.7,1.8l2.9,4.1l0.9,0.6l1.6,0.3l3.3-0.8l3.2-2.4l3.3-4.6l1-3.2l0.2-3.8l-1.4-7.5l-0.8-1.8l-0.1,1.6
		l1.9,6.3l1.8,3.8l3.5,6l5.8,7.5l3.9,4.4l2.3,2.3l1,0.7l0.3-0.3"/>
</g>
<g>
	<path class="st2" d="M1594.7,683.4l2.8-1.7l3-1.2l0.1,5.8l0.4,2.4l1.5,7.1l2.5,8.6l1.7,9.5l0.5,6.4l0.1,10.5l-0.4,2.6"/>
</g>
<g>
	<path class="st2" d="M1593.5,710.1l-1.4,2.3l0.1,2.4l7-1.9l5.6-0.5l4.6-1.4l2.2-0.2l2.2-0.7l3.7-2l0.1-0.7l-0.7,0l-0.7,1l0.5,1.9
		l-0.4,3.1l0.2,5.5l1,6.3l0,1.7l2,4l1,1.1l1.5,0.3"/>
</g>
<g>
	<path class="st2" d="M1627.9,678.8l-5.3-5.5l0.5-0.4l1.8,2.4l0.4,1.5"/>
</g>
<g>
	<path class="st2" d="M1639.3,708.2l1,0.5l1.3-0.2l1.7-0.9l-1.5-5.6l-0.6-0.4l-2,0.4l-1.8,1l-3.6,4l-1.3,2.5l-0.4,1.6l0.1,3.8
		l0.4,1.7l0.8,1.6l2.3,2.8l3.4,2.5l4.9,2.6l2.8,0.9l1,0.2l0.8-0.2l1.2-1l1.1-1.9l0.1-1.8l-0.8-5.5l-2-7.4l-1.6-4l0.1-1.3l0.3-0.5
		l0.2,1.1"/>
</g>
<g>
	<path class="st2" d="M1656.3,727l0.5-0.8l-0.1-0.7l0.8-0.9l-0.5-2.7l0-3.7l1.1-7.8l1.4-5.4l2.2-4.9l2.5-3.8l1.2-1.1l1.2-0.5l0.9,0
		l2.8,1.2l1.3,1.7l7.3,13.6l3.8,8.7l5.6,8.7"/>
</g>
<g>
	<path class="st2" d="M382.7,906.4l0.4-3.9l-0.7,0l-0.2,1.4l-1.7-0.1l-0.8,0.5l-1.1,0l-3.2,1.8l-2,1.8l-1.8,2.2l-1.6,3.2l-0.9,3.5
		l-0.9,8.5l0.4,7.1l0.9,5.1l0.9,2.5l0.9,2l1.1,1.4l2,5.5l3.1,5.9l3.7,3.8l2,1.6l0.8,0.1l0.9,0.6l1.6,1.8l2.5,1.6l4.8,4.2l0-0.5
		l-0.1,0.8l-0.7-1.4l-4.2-3.3l-2.2-2.3l-2.1-1.4l-3.4-5l-2.1-6.6l-1.8-3.9l-0.3-1.5l-0.6-1.1l-0.8-0.2l-2.8-5.3l-0.3-2.6l0.8-7.1
		l1.5-8.1l0.8-6.6l1.5-1.6l3.4-2.3l1.4-1.4l1.7-0.8l11.2-1.9l2.5-0.9l2-0.2v0.8l1.1,0.6l1.4,2.1"/>
</g>
<g>
	<path class="st2" d="M395.2,928l-0.8-2.2l0.4-0.2l8.3-1.7l5-0.3l13.8-2.8l18.9-5.9l11.9-2l4.6,0.1l1.5,0.7l-0.8,0.8"/>
</g>
<g>
	<path class="st2" d="M428.1,922.9l-0.4,0.4l-0.1,0.7l0.6-0.2l-0.1,0.3l1.2,1.3l1.5,3.1l0.6,2.1l1.3,7.9l1.1,19.6l1.1-2"/>
</g>
<g>
	<path class="st2" d="M459.2,914.1l1.1-2.4l-0.4,1.6l1.7,4.7l0.5,2.3l1.9,14.6l0.6,6.5l0.2,8.9l-0.3,5.4l0.4,6.4l0.9-3.5l3.2-7.3
		l2.4-4.2l3.8-4.8l1.8-1.1l1.7-0.4l1.6,0l1.8,3l0.8,2.3l1.1,6l1.8,4.6l2.2,1.1l3.4-0.2"/>
</g>
<g>
	<path class="st2" d="M514.1,947.7l1.9-2.1l0-0.4l-0.8-0.4l-0.3-4l-0.8-3.2l-1.3-2.1l-0.6-0.2l-1.7,0.4l-1.6,0.9l-3.5,3.4l-1.7,2.8
		l-1.1,2.9l-0.3,3.9l0.3,1.3l1.4,3.3l0.9,1.4l0.6,0.3l2.5,0.3l2.5-1.1l5.7-4.4l2.1-2.3l0.7-2.8l-0.2-1.8l-1.5-4.4l0.2-1.3l0.1,0.6
		l3.7,6l0.7,1.7l1,1.2l2.8,1.8l2.3,0.9l2.1,0.2l3.4-1l1.7-1.7"/>
</g>
<g>
	<path class="st2" d="M537.4,910.9l-0.5,2.2l5.8,16.2l2.7,11.5l1,7.4l0.1,6.8l0.5,2.6l0.2,0.7l0.2-0.1"/>
</g>
<g>
	<path class="st2" d="M537.4,939.7l-0.8-0.2l0.1-0.8l4.3-1.9l7.1-2.3l3.1-0.5"/>
</g>
<g>
	<path class="st2" d="M567.6,904.8l3.6-3l0.3,0.7l-0.5,1.1l0,1.2l0.7,8.7l0.3,2l1.3,2.3"/>
</g>
<g>
	<path class="st2" d="M600.4,921.6l-2.1,1l-2.3-0.1l-1.3,0.5l-6.3,3.9l-4.2,3.6l-2.2,2.4l-0.2,1.6l2.4,1.9l3.1,1.1l8,1.2l6.5,1.8
		l2.7,1.5l0.2,0.5l-0.4,0.7l-3,2.3l-5.3,2.1l-5.1,1.3l-1.9,0.3l-4.7-0.2l-3.8-0.9l-0.5-0.3l0-0.5"/>
</g>
<g>
	<path class="st2" d="M670.7,937.8l-0.8-0.8l-0.6-1.6l0.8-1.4l-0.2-2.8l-1.4-2l-3.2-0.3l-4,0.9l-1.5,0.6l-3.2,2l-4.7,4.3l-2,3.2
		l-1,2.4l-0.1,2.1l0.7,1l1.9-0.3l2.5-1.5l6.5-5.9l1.2-2l2-5.6l-1,2.2l-0.2,2.6l0.3,2.6l1.3,3l2.5,2.9l3.7,2.1l1.1,0.4l2.5,0.2
		l4.8-0.8l2.6-1.9"/>
</g>
<g>
	<path class="st2" d="M757.6,922.3l1.9-3.4l1.2-3l-0.4-6.3l-1.2-4.2l-1.1-1.7l-4-1.9l-3.1-0.7l-1.7-0.2l-4.7,0.6l-2.8,1.3l-3.4,2.5
		l-1.8,1.7l-1.6,2.2l-2.7,5.3l-1,3.1l-2.4,14.2l-1.2,10.2l0.1,5.2l0.4,2.4l1.4,3.9l2.8,4.3l2.8-0.9"/>
</g>
<g>
	<path class="st2" d="M717.7,947.9l3.5-2.4l1.6-0.6l11.3-1.1l21.6-2.9"/>
</g>
<g>
	<path class="st2" d="M786.9,934l-2.2-2.5l-0.1-2l-1.1-1.7l-0.4-0.1l-3.4,0l-3.8,2.4l-3.2,3.3l-2.6,4.1l-0.8,1.9l-0.5,3.4l0.6,2.8
		l1.3,1.7l1.6,0.8l1.9-0.1l2.2-1.1l2.5-1.8l5.6-5.3l1.8-2.8l0.1-1.1l-0.2-0.2l-0.3,0l0.1,0.9l0.1-0.5l8.6,7.2l3.8,2.1l1.2-0.1
		l1.2,0.3l0.9,0.7l2.4,0.3"/>
</g>
<g>
	<path class="st2" d="M812.6,910.5l0.3-0.2l-0.1,0.6l2.1,4l0.7,2.4l2.2,21.1l0.1,8.7l0.6,1.4"/>
</g>
<g>
	<path class="st2" d="M841.3,916.3l-1.5-0.3l-1.7,0.2l-2.3,1.2l-5.3,6.2l-4.2,6.9l-2.2,4.5l-1.5,3.6l-0.1,1.8l1,1.3l5.5,3l2.1,0.7
		l7.2,1.1l2.8,0.2l2.8-0.5l5.8-1.7l6.8-2.5l13.2-5.7l4.4-2.5l2.8-3.1l0.5-1.4l-0.4-3.8l-1.1-4.3l-0.8-1.9l-0.9-0.5l-5.9,5.5
		l-2.3,3.3l-0.6,1.5l-1.7,5.6l-0.2,2.5l0.2,1.1l1.7,3l2.1,1.7l1.3,0.5l3.6,0.6l2.5-0.1l5.2-0.7l7.9-2l5.9-0.8l2.4-0.7"/>
</g>
<g>
	<path class="st2" d="M942,919.6l-2.4,1.9l-0.3-0.4l1.4-0.2l-0.5,0.2l-0.1,1l0.7,17.7l0.5,4l0.3-0.2l-0.9-11.4l0.6-3.6l2.2-5.6
		l1.1-1.5l2.2-1.4l7.3-1.5l4.9,0.3l4.8,1l1.5,0.6l2,1.7l1.1,1.9l1.3,9.4l1.8,5.7l1.1,1.7l0.7,0.3l0.5-0.8"/>
</g>
<g>
	<path class="st2" d="M987.5,919.4l2-2.1l-0.8,0.4l0,1.3l-0.8,1.8l-0.4,4.8l0.3,3.3l0.8,2.2l1.9,2.7l2,1.8l2.8,1.1l6,0.4l2.4-0.4
		l8-2.5l4.1-1.6l0.7-1.2l0-0.6l-1.5-3.7l-1.2-4.2"/>
</g>
<g>
	<path class="st2" d="M1033.1,920.7l0.9-0.8l-0.2,0.3l1,4.1l3.9,10.4l0,1l-0.4-2.8l0.4-3.2l5.3-9.8l2-2.1l1.5-0.7l3.4,2.6l5.8,5.8
		l2.2,0.9l1.2,0.1l3.2-1l2.3-1.5l1.3,0l1.1-0.6l1-1.3l3.6-3l1.3-3.5l-0.6,1.6l-0.4,3.1l0,4.3l1.4,2.6l2.5,3.3l4.1,1.8l1.4,0.1
		l9.8-1.9"/>
</g>
<g>
	<path class="st2" d="M1099.7,904.3l1.4-1.4l-0.2,0.6l-0.3-0.4l-0.1,0.2l1.8,1.7l1.6,3.1l1,4l0.7,8.1l0,6.5l-1,7.8l0.5-2.6l0.8-2
		l3.4-4.9l2.2-1.7l3.2-0.6l3.2,0.1l2.4,1.2l1.1,1l2.5,3.4l0.9,3l-0.3,1.7l-2.1,2.1l-4.1,1.3l-5,0.6l-5.7,0l-3.5-0.2l-0.1-0.8"/>
</g>
<g>
	<path class="st2" d="M1136.7,927.1l3.8,1.4l3.5,0.5l3.9,0.1l7.1-1.4l4.6-1.5l6.1-3.3l0.8-1.1l-0.2-0.4l-0.8-0.4l-5.6-2.1l-3.4-0.3
		l-8.1,0.7l-12,3.6l-1.1,0.8l-1.9,2.6l-1.8,3.4l-0.8,3.3l0.1,1.5l0.6,1l3.7,3.2l2,0.9l4.6,0.8l5.9,0.6l3,0l6.5-1l3.4-0.1l10.9-2.5
		l2.3-0.1"/>
</g>
<g>
	<path class="st2" d="M1187.6,937l0.3-0.8l-0.6-0.4l0-0.7l-2.6-6.2l0.1-5.4l1-5.7l1.4-2.4l0.4-0.3l1,0.8l0.8,0.1"/>
</g>
<g>
	<path class="st2" d="M1209.7,900l3.8-3.8l0.2,0.6l4.2,0.8l3.8,2.1l3.3,2.5l1.5,1.6l2.9,4.6l2.8,5.6l4.9,13.6l0.9,7.1l-0.4,7.3
		l-1.1,6.4l-0.8,2.6l-1.1,2.2l-1.5,1.9l-2.2,1.8l-2.7,1.6l-2.8,1l-7.7,1.7l-4.1,0"/>
</g>
</svg>
