<svg id="Layer_1" data-name="Layer 1" xmlns="http://www.w3.org/2000/svg" xmlns:xlink="http://www.w3.org/1999/xlink" viewBox="0 0 255.16 358.23"><defs><style>.cls-1{fill:#f49746;}.cls-2{fill:url(#linear-gradient);}.cls-3{fill:url(#linear-gradient-2);}.cls-4{fill:url(#linear-gradient-3);}.cls-5{fill:url(#linear-gradient-4);}.cls-6{fill:url(#linear-gradient-5);}.cls-7{fill:url(#linear-gradient-6);}.cls-8{fill:url(#linear-gradient-7);}.cls-9{fill:url(#linear-gradient-8);}.cls-10{fill:url(#linear-gradient-9);}.cls-11{fill:url(#linear-gradient-10);}.cls-12{fill:#fff;}</style><linearGradient id="linear-gradient" y1="55.83" x2="113.68" y2="55.83" gradientUnits="userSpaceOnUse"><stop offset="0" stop-color="#fe5f75"/><stop offset="1" stop-color="#fc9842"/></linearGradient><linearGradient id="linear-gradient-2" x1="2.53" y1="235.45" x2="48.51" y2="235.45" xlink:href="#linear-gradient"/><linearGradient id="linear-gradient-3" x1="29.31" y1="248.34" x2="146.02" y2="248.34" xlink:href="#linear-gradient"/><linearGradient id="linear-gradient-4" x1="133.89" y1="288.51" x2="255.16" y2="288.51" xlink:href="#linear-gradient"/><linearGradient id="linear-gradient-5" y1="165.73" x2="255.16" y2="165.73" xlink:href="#linear-gradient"/><linearGradient id="linear-gradient-6" x1="82.86" y1="53.05" x2="227.87" y2="53.05" xlink:href="#linear-gradient"/><linearGradient id="linear-gradient-7" x1="83.37" y1="193.01" x2="192.51" y2="193.01" xlink:href="#linear-gradient"/><linearGradient id="linear-gradient-8" x1="83.37" y1="111.16" x2="166.74" y2="111.16" xlink:href="#linear-gradient"/><linearGradient id="linear-gradient-9" y1="100.55" x2="93.47" y2="100.55" xlink:href="#linear-gradient"/><linearGradient id="linear-gradient-10" x1="93.47" y1="73.01" x2="227.87" y2="73.01" xlink:href="#linear-gradient"/></defs><polygon class="cls-1" points="72.25 18.19 0 111.66 93.47 62.65 113.68 39.92 82.86 0 72.25 18.19"/><polygon class="cls-1" points="2.53 163.71 5.56 253.14 48.51 307.2 29.3 184.93 2.53 163.71"/><polygon class="cls-1" points="48.51 307.2 133.9 358.23 146.02 304.17 120.25 280.93 83.37 138.44 29.3 184.93 48.51 307.2"/><polygon class="cls-1" points="133.9 358.23 230.91 326.9 255.16 268.8 192.5 218.78 146.02 304.17 133.9 358.23"/><polyline class="cls-1" points="83.37 138.44 192.5 218.78 255.16 268.8 227.87 106.11 155.62 81.35 93.47 62.65 83.37 138.44 66.5 152.95 29.3 184.93 2.53 163.71 0 111.66 83.37 138.44"/><polygon class="cls-1" points="82.86 0 130.86 34.86 210.19 65.18 227.87 106.11 113.68 39.92 82.86 0"/><polyline class="cls-1" points="83.37 138.44 120.25 280.93 146.02 304.17 192.5 218.78 157.64 81.85"/><polyline class="cls-1" points="83.37 138.44 130.36 101.56 166.74 118.23 90.95 83.87"/><polygon class="cls-1" points="0 111.66 93.47 62.65 83.37 138.44 0 111.66"/><polygon class="cls-1" points="113.68 39.92 93.47 62.65 227.87 106.11 113.68 39.92"/><path class="cls-1" d="M242,278.62c-1.71,1.6-3.53,3.1-5.11,4.82-3.26,3.55-6.77,7-9.5,10.89-3.54,5.13-4.5,11.27-5.14,17.38-.37,3.45-.58,6.93-1.05,10.36a10.16,10.16,0,0,1-1.37,2.84c-1-.51-2.27-.79-3-1.57a60,60,0,0,1-5.25-6.85,46.59,46.59,0,0,0-14.3-14.24,32.29,32.29,0,0,1-5.35-4.26,3.46,3.46,0,0,1-.76-2.91c.2-.65,1.51-1.24,2.4-1.38,5.27-.8,10.62-1.22,15.84-2.28a15.61,15.61,0,0,0,7-3.32c5.14-4.54,9.92-9.48,14.81-14.31a16.28,16.28,0,0,0,1.67-2.59c-2.62-.17-4.71-.41-6.8-.41-8.31,0-16.62,0-24.93.14a7.67,7.67,0,0,0-4,1.15c-5.32,3.62-10.47,7.5-15.79,11.12-1.44,1-3.58,2.28-4.85,1.84-2.23-.76-1.65-3.4-1.49-5.4a29.31,29.31,0,0,1,.79-5c2.11-7.77.81-15.49-.18-23.22a34.49,34.49,0,0,1-.37-5.07c.06-2,1.11-2.52,2.89-1.6a20,20,0,0,1,3,2c2.06,1.62,4.12,3.27,6.1,5,6.13,5.32,13,8.31,21.33,7.78,6.08-.39,12.21-.05,18.31-.12,1.64,0,3.28-.34,5.38-.58a14.89,14.89,0,0,0-1.47-2.29c-5-5.05-9.88-10.29-15.23-15-2.08-1.82-5.18-2.81-8-3.37-4.56-.91-9.26-1.07-13.87-1.74-1-.14-2.4-1-2.6-1.74s.56-2.21,1.32-2.88c5.34-4.7,11-9,16.11-14,2.87-2.78,4.71-6.61,7.24-9.78,1-1.22,2.61-1.93,3.95-2.88a21.85,21.85,0,0,1,1.54,4.34c.75,5.46,1,11,2,16.4a16.3,16.3,0,0,0,3.21,7.58c4.4,5.13,9.32,9.83,14.05,14.68a15.61,15.61,0,0,0,1.86,1.31,44.26,44.26,0,0,0,.54-5c0-9.84-.08-19.68-.38-29.51a12.84,12.84,0,0,0-1.88-6.17c-3.09-5-6.63-9.64-9.81-14.54-.84-1.31-1-3-1.56-4.55a25,25,0,0,1,4.51-.49c7,.43,14,1.29,21,1.42,3.49.06,7-1.25,10.5-1.69,1.3-.16,2.68.4,4,.62-.28,1.41-.15,3.1-.91,4.16-3.26,4.64-6.8,9.08-10.21,13.61a15.22,15.22,0,0,0-3,10.17c.33,9.06.24,18.14.35,27.22a32.85,32.85,0,0,0,.45,3.45c1.13-1,1.85-1.49,2.49-2.1L293,213a17.32,17.32,0,0,1,2.1-1.83c2.37-1.65,4.1-1.26,6.42,1.21,1.8,1.9,1.4,3.67-.18,5.38-4.57,4.9-9.14,9.79-13.76,14.64-7.61,8-15.27,15.91-22.9,23.86-.57.6-1.06,1.27-2,2.43a39.24,39.24,0,0,0,4,.49c17,.13,34.09.3,51.13.28,2.49,0,3.59,1,4.07,3.1a13.55,13.55,0,0,1,.41,3.52c-.13,3.88-1,4.62-4.79,4.65q-24.29.15-48.59.33c-1.22,0-2.44.22-4.33.41,1,1.21,1.51,1.93,2.12,2.56,11.37,11.66,22.67,23.38,34.17,34.91,2,2,1.83,3.54.65,5.54a13.37,13.37,0,0,1-.89,1.24c-3.09,4-4.05,4.23-7.9.93-4.05-3.48-7.88-7.21-11.74-10.89-7.55-7.21-15-14.46-22.57-21.69-.59-.56-1.25-1-2.38-2-.21,1.72-.45,2.84-.47,4-.25,14.5-.45,29-.71,43.5a38,38,0,0,1-.56,5.31c-.45,2.82-2.15,3.8-5.93,3.56-3.31-.21-4.19-.9-4.26-4.07-.34-15.86-.59-31.72-.89-47.58-.05-2.59-.21-5.19-.32-7.78Z" transform="translate(-122.42 -70.88)"/><polygon class="cls-2" points="72.25 18.19 0 111.66 93.47 62.65 113.68 39.92 82.86 0 72.25 18.19"/><polygon class="cls-3" points="2.53 163.71 5.56 253.14 48.51 307.2 29.3 184.93 2.53 163.71"/><polygon class="cls-4" points="48.51 307.2 133.9 358.23 146.02 304.17 120.25 280.93 83.37 138.44 29.3 184.93 48.51 307.2"/><polygon class="cls-5" points="133.9 358.23 230.91 326.9 255.16 268.8 192.5 218.78 146.02 304.17 133.9 358.23"/><polyline class="cls-6" points="83.37 138.44 192.5 218.78 255.16 268.8 227.87 106.11 155.62 81.35 93.47 62.65 83.37 138.44 66.5 152.95 29.3 184.93 2.53 163.71 0 111.66 83.37 138.44"/><polygon class="cls-7" points="82.86 0 130.86 34.86 210.19 65.18 227.87 106.11 113.68 39.92 82.86 0"/><polyline class="cls-8" points="83.37 138.44 120.25 280.93 146.02 304.17 192.5 218.78 157.64 81.85"/><polyline class="cls-9" points="83.37 138.44 130.36 101.56 166.74 118.23 90.95 83.87"/><polygon class="cls-10" points="0 111.66 93.47 62.65 83.37 138.44 0 111.66"/><polygon class="cls-11" points="113.68 39.92 93.47 62.65 227.87 106.11 113.68 39.92"/><path class="cls-12" d="M242,278.62c-1.71,1.6-3.53,3.1-5.11,4.82-3.26,3.55-6.77,7-9.5,10.89-3.54,5.13-4.5,11.27-5.14,17.38-.37,3.45-.58,6.93-1.05,10.36a10.16,10.16,0,0,1-1.37,2.84c-1-.51-2.27-.79-3-1.57a60,60,0,0,1-5.25-6.85,46.59,46.59,0,0,0-14.3-14.24,32.29,32.29,0,0,1-5.35-4.26,3.46,3.46,0,0,1-.76-2.91c.2-.65,1.51-1.24,2.4-1.38,5.27-.8,10.62-1.22,15.84-2.28a15.61,15.61,0,0,0,7-3.32c5.14-4.54,9.92-9.48,14.81-14.31a16.28,16.28,0,0,0,1.67-2.59c-2.62-.17-4.71-.41-6.8-.41-8.31,0-16.62,0-24.93.14a7.67,7.67,0,0,0-4,1.15c-5.32,3.62-10.47,7.5-15.79,11.12-1.44,1-3.58,2.28-4.85,1.84-2.23-.76-1.65-3.4-1.49-5.4a29.31,29.31,0,0,1,.79-5c2.11-7.77.81-15.49-.18-23.22a34.49,34.49,0,0,1-.37-5.07c.06-2,1.11-2.52,2.89-1.6a20,20,0,0,1,3,2c2.06,1.62,4.12,3.27,6.1,5,6.13,5.32,13,8.31,21.33,7.78,6.08-.39,12.21-.05,18.31-.12,1.64,0,3.28-.34,5.38-.58a14.89,14.89,0,0,0-1.47-2.29c-5-5.05-9.88-10.29-15.23-15-2.08-1.82-5.18-2.81-8-3.37-4.56-.91-9.26-1.07-13.87-1.74-1-.14-2.4-1-2.6-1.74s.56-2.21,1.32-2.88c5.34-4.7,11-9,16.11-14,2.87-2.78,4.71-6.61,7.24-9.78,1-1.22,2.61-1.93,3.95-2.88a21.85,21.85,0,0,1,1.54,4.34c.75,5.46,1,11,2,16.4a16.3,16.3,0,0,0,3.21,7.58c4.4,5.13,9.32,9.83,14.05,14.68a15.61,15.61,0,0,0,1.86,1.31,44.26,44.26,0,0,0,.54-5c0-9.84-.08-19.68-.38-29.51a12.84,12.84,0,0,0-1.88-6.17c-3.09-5-6.63-9.64-9.81-14.54-.84-1.31-1-3-1.56-4.55a25,25,0,0,1,4.51-.49c7,.43,14,1.29,21,1.42,3.49.06,7-1.25,10.5-1.69,1.3-.16,2.68.4,4,.62-.28,1.41-.15,3.1-.91,4.16-3.26,4.64-6.8,9.08-10.21,13.61a15.22,15.22,0,0,0-3,10.17c.33,9.06.24,18.14.35,27.22a32.85,32.85,0,0,0,.45,3.45c1.13-1,1.85-1.49,2.49-2.1L293,213a17.32,17.32,0,0,1,2.1-1.83c2.37-1.65,4.1-1.26,6.42,1.21,1.8,1.9,1.4,3.67-.18,5.38-4.57,4.9-9.14,9.79-13.76,14.64-7.61,8-15.27,15.91-22.9,23.86-.57.6-1.06,1.27-2,2.43a39.24,39.24,0,0,0,4,.49c17,.13,34.09.3,51.13.28,2.49,0,3.59,1,4.07,3.1a13.55,13.55,0,0,1,.41,3.52c-.13,3.88-1,4.62-4.79,4.65q-24.29.15-48.59.33c-1.22,0-2.44.22-4.33.41,1,1.21,1.51,1.93,2.12,2.56,11.37,11.66,22.67,23.38,34.17,34.91,2,2,1.83,3.54.65,5.54a13.37,13.37,0,0,1-.89,1.24c-3.09,4-4.05,4.23-7.9.93-4.05-3.48-7.88-7.21-11.74-10.89-7.55-7.21-15-14.46-22.57-21.69-.59-.56-1.25-1-2.38-2-.21,1.72-.45,2.84-.47,4-.25,14.5-.45,29-.71,43.5a38,38,0,0,1-.56,5.31c-.45,2.82-2.15,3.8-5.93,3.56-3.31-.21-4.19-.9-4.26-4.07-.34-15.86-.59-31.72-.89-47.58-.05-2.59-.21-5.19-.32-7.78Z" transform="translate(-122.42 -70.88)"/></svg>