<svg xmlns="http://www.w3.org/2000/svg" xmlns:xlink="http://www.w3.org/1999/xlink" viewBox="0 0 500 588.67"><defs><style>.cls-1,.cls-10,.cls-11,.cls-2,.cls-3,.cls-4{fill:none;stroke-linecap:round;}.cls-1,.cls-10,.cls-11,.cls-2,.cls-3,.cls-4,.cls-5,.cls-7,.cls-8,.cls-9{stroke-miterlimit:10;stroke-width:2px;}.cls-1{stroke:url(#linear-gradient);}.cls-2{stroke:url(#linear-gradient-2);}.cls-3{stroke:url(#linear-gradient-3);}.cls-4{stroke:url(#linear-gradient-4);}.cls-5{fill:url(#linear-gradient-5);stroke:url(#linear-gradient-6);}.cls-6{fill:url(#linear-gradient-7);}.cls-7{fill:url(#linear-gradient-8);stroke:url(#linear-gradient-9);}.cls-8{fill:url(#linear-gradient-10);stroke:url(#linear-gradient-11);}.cls-9{fill:url(#linear-gradient-12);stroke:url(#linear-gradient-13);}.cls-10{stroke:url(#linear-gradient-14);}.cls-11{stroke:url(#linear-gradient-15);}.cls-12{fill:url(#linear-gradient-16);}.cls-13{fill:url(#linear-gradient-17);}.cls-14{fill:url(#linear-gradient-18);}.cls-15{fill:url(#linear-gradient-19);}.cls-16{fill:url(#linear-gradient-20);}.cls-17{fill:url(#linear-gradient-21);}.cls-18{fill:url(#linear-gradient-22);}.cls-19{fill:url(#linear-gradient-23);}.cls-20{fill:url(#linear-gradient-24);}.cls-21{fill:url(#linear-gradient-25);}.cls-22{fill:url(#linear-gradient-26);}.cls-23{fill:url(#linear-gradient-27);}.cls-24{fill:url(#linear-gradient-28);}.cls-25{fill:url(#linear-gradient-29);}.cls-26{fill:url(#linear-gradient-30);}.cls-27{fill:url(#linear-gradient-31);}.cls-28{fill:url(#linear-gradient-32);}.cls-29{fill:url(#linear-gradient-33);}.cls-30{fill:url(#linear-gradient-34);}.cls-31{fill:url(#linear-gradient-35);}.cls-32{fill:url(#linear-gradient-36);}.cls-33{fill:url(#linear-gradient-37);}.cls-34{fill:url(#linear-gradient-38);}.cls-35{fill:url(#linear-gradient-39);}.cls-36{fill:url(#linear-gradient-40);}.cls-37{fill:url(#linear-gradient-41);}.cls-38{fill:url(#linear-gradient-42);}</style><linearGradient id="linear-gradient" x1="288.21" y1="366.1" x2="319.71" y2="366.1" gradientUnits="userSpaceOnUse"><stop offset="0" stop-color="#552b75"/><stop offset="1" stop-color="#93278f"/></linearGradient><linearGradient id="linear-gradient-2" x1="179.14" y1="364.09" x2="210.64" y2="364.09" xlink:href="#linear-gradient"/><linearGradient id="linear-gradient-3" x1="208.1" y1="467.05" x2="292.05" y2="467.05" xlink:href="#linear-gradient"/><linearGradient id="linear-gradient-4" x1="167.78" y1="248.87" x2="194.69" y2="248.87" xlink:href="#linear-gradient"/><linearGradient id="linear-gradient-5" x1="174.86" y1="277.44" x2="191.98" y2="277.44" xlink:href="#linear-gradient"/><linearGradient id="linear-gradient-6" x1="173.86" y1="277.44" x2="192.98" y2="277.44" xlink:href="#linear-gradient"/><linearGradient id="linear-gradient-7" x1="306.93" y1="268.64" x2="328.94" y2="268.64" xlink:href="#linear-gradient"/><linearGradient id="linear-gradient-8" x1="310.05" y1="278.53" x2="327.16" y2="278.53" xlink:href="#linear-gradient"/><linearGradient id="linear-gradient-9" x1="309.05" y1="278.53" x2="328.16" y2="278.53" xlink:href="#linear-gradient"/><linearGradient id="linear-gradient-10" x1="265.01" y1="431.02" x2="286.99" y2="431.02" xlink:href="#linear-gradient"/><linearGradient id="linear-gradient-11" x1="264.01" y1="431.02" x2="287.99" y2="431.02" xlink:href="#linear-gradient"/><linearGradient id="linear-gradient-12" x1="214.04" y1="429.02" x2="236.02" y2="429.02" xlink:href="#linear-gradient"/><linearGradient id="linear-gradient-13" x1="213.04" y1="429.02" x2="237.02" y2="429.02" xlink:href="#linear-gradient"/><linearGradient id="linear-gradient-14" x1="164.9" y1="458.74" x2="197.54" y2="458.74" xlink:href="#linear-gradient"/><linearGradient id="linear-gradient-15" x1="298.64" y1="470.72" x2="332.8" y2="470.72" xlink:href="#linear-gradient"/><linearGradient id="linear-gradient-16" x1="273.54" y1="324.59" x2="293.75" y2="324.59" xlink:href="#linear-gradient"/><linearGradient id="linear-gradient-17" x1="212.34" y1="324.29" x2="232.56" y2="324.29" xlink:href="#linear-gradient"/><linearGradient id="linear-gradient-18" x1="230.73" y1="693.11" x2="283.48" y2="693.11" gradientTransform="matrix(0.17, 0.98, -0.98, 0.17, 821.09, 183.48)" xlink:href="#linear-gradient"/><linearGradient id="linear-gradient-19" x1="379.26" y1="252.91" x2="410.68" y2="252.91" xlink:href="#linear-gradient"/><linearGradient id="linear-gradient-20" x1="433.05" y1="357.71" x2="460.94" y2="357.71" xlink:href="#linear-gradient"/><linearGradient id="linear-gradient-21" x1="376.59" y1="317.53" x2="431.6" y2="317.53" xlink:href="#linear-gradient"/><linearGradient id="linear-gradient-22" x1="409.09" y1="393.64" x2="427.77" y2="393.64" xlink:href="#linear-gradient"/><linearGradient id="linear-gradient-23" x1="408.73" y1="458.15" x2="461.47" y2="458.15" xlink:href="#linear-gradient"/><linearGradient id="linear-gradient-24" x1="244.6" y1="544.36" x2="272.17" y2="544.36" gradientTransform="translate(583.46 38.69) rotate(59.38)" xlink:href="#linear-gradient"/><linearGradient id="linear-gradient-25" x1="367.93" y1="478.86" x2="395.5" y2="478.86" xlink:href="#linear-gradient"/><linearGradient id="linear-gradient-26" x1="361.38" y1="517.86" x2="414.13" y2="517.86" gradientTransform="translate(250.69 -114.43) rotate(24.65)" xlink:href="#linear-gradient"/><linearGradient id="linear-gradient-27" x1="322.41" y1="509.12" x2="349.98" y2="509.12" gradientTransform="translate(237.1 -85.35) rotate(24.06)" xlink:href="#linear-gradient"/><linearGradient id="linear-gradient-28" x1="312.57" y1="599.85" x2="365.32" y2="599.85" gradientTransform="translate(560.11 -74.75) rotate(51.47)" xlink:href="#linear-gradient"/><linearGradient id="linear-gradient-29" x1="51.91" y1="674.95" x2="79.48" y2="674.95" gradientTransform="translate(440.78 931.67) rotate(155.03)" xlink:href="#linear-gradient"/><linearGradient id="linear-gradient-30" x1="187.99" y1="577.27" x2="215.56" y2="577.27" gradientTransform="translate(735.46 282.71) rotate(86.51)" xlink:href="#linear-gradient"/><linearGradient id="linear-gradient-31" x1="101.59" y1="647.99" x2="129.16" y2="647.99" gradientTransform="translate(628.46 797.06) rotate(135.71)" xlink:href="#linear-gradient"/><linearGradient id="linear-gradient-32" x1="149.2" y1="616.57" x2="176.77" y2="616.57" gradientTransform="translate(762.94 474.83) rotate(104.49)" xlink:href="#linear-gradient"/><linearGradient id="linear-gradient-33" x1="129.75" y1="840.27" x2="182.49" y2="840.27" gradientTransform="translate(793.44 915.33) rotate(132.3)" xlink:href="#linear-gradient"/><linearGradient id="linear-gradient-34" x1="-22.08" y1="1056.97" x2="30.67" y2="1056.97" gradientTransform="translate(-287.28 1200.4) rotate(-157.46)" xlink:href="#linear-gradient"/><linearGradient id="linear-gradient-35" x1="-45.35" y1="1107.93" x2="7.4" y2="1107.93" gradientTransform="translate(-692.87 898.47) rotate(-130.72)" xlink:href="#linear-gradient"/><linearGradient id="linear-gradient-36" x1="4.21" y1="716.71" x2="31.78" y2="716.71" gradientTransform="translate(122.53 997.81) rotate(-178.34)" xlink:href="#linear-gradient"/><linearGradient id="linear-gradient-37" x1="-38.67" y1="757.38" x2="-11.1" y2="757.38" gradientTransform="matrix(-0.87, -0.49, 0.49, -0.87, -222.36, 886.77)" xlink:href="#linear-gradient"/><linearGradient id="linear-gradient-38" x1="28.8" y1="991.74" x2="81.55" y2="991.74" gradientTransform="translate(207.61 1274.18) rotate(175.15)" xlink:href="#linear-gradient"/><linearGradient id="linear-gradient-39" x1="75.98" y1="911.2" x2="128.73" y2="911.2" gradientTransform="translate(448.14 1205) rotate(160.58)" xlink:href="#linear-gradient"/><linearGradient id="linear-gradient-40" x1="57.65" y1="286.38" x2="442.49" y2="286.38" xlink:href="#linear-gradient"/><linearGradient id="linear-gradient-41" x1="174.51" y1="764.17" x2="227.26" y2="764.17" gradientTransform="translate(904.31 564.4) rotate(107.63)" xlink:href="#linear-gradient"/><linearGradient id="linear-gradient-42" x1="290.73" y1="199.81" x2="306.02" y2="199.81" xlink:href="#linear-gradient"/></defs><g id="Horse_head" data-name="Horse head"><path class="cls-1" d="M316.54,291.39c4.77,26.71.81,45.47-3.5,57.47-6.49,18.11-15.19,24.75-20.49,43.47-5.51,19.51-3.12,37.16-.5,48.48"/><path class="cls-2" d="M182.31,289.38c-4.77,26.71-.8,45.47,3.5,57.47,6.5,18.1,15.19,24.75,20.49,43.47,5.52,19.51,3.12,37.16.5,48.48"/><path class="cls-3" d="M291.05,448.31a41,41,0,0,1-82-1"/><path class="cls-4" d="M193.61,290.89c.62-5.91-2.16-10.84-6-15.08-3.72-4.09-9.44-7.72-11.58-12.95-2.39-5.84.08-12.35,1.48-18.11,1.69-6.89,1.11-12.57-.34-19.42s-3.44-13.48-8.38-18.48"/><path class="cls-5" d="M191.92,283.7c-.18.76-.91,1.19-2.37,2-1,.58-4.56,2.65-7.5,1.49-5.69-2.26-8.61-16.55-6.5-19.31C178.45,264.13,193,279,191.92,283.7Z"/><path class="cls-6" d="M325.57,245.92a58,58,0,0,1,3.17,11.25,17.31,17.31,0,0,1-.18,6.2,11.69,11.69,0,0,1-3.1,5.66l-.09.08-.1.08A57.34,57.34,0,0,0,314.33,279a22.74,22.74,0,0,0-3.63,6c-.21.54-.35,1.1-.54,1.65s-.22,1.13-.34,1.69l-.14,1.72a2.44,2.44,0,0,1-1.07,1.86h0a.33.33,0,0,1-.37,0,2.49,2.49,0,0,1-1.29-1.92c0-.69.06-1.37.11-2.06s.22-1.36.36-2,.36-1.32.59-2a24.41,24.41,0,0,1,4-6.95,54.85,54.85,0,0,1,11.56-10.33l-.19.16a9.08,9.08,0,0,0,2.42-4.23,15.78,15.78,0,0,0,.32-5.21c-.3-3.63-1.47-7.25-2.42-11a1,1,0,0,1,.72-1.22A1,1,0,0,1,325.57,245.92Z"/><path class="cls-7" d="M310.1,284.78c.18.77.91,1.19,2.38,2.05,1,.57,4.56,2.65,7.49,1.48,5.69-2.26,8.61-16.54,6.5-19.31C323.57,265.21,309,280.11,310.1,284.78Z"/><path class="cls-8" d="M279.06,410.58c-.33.13,3.74,8,.63,11.86-.32.39-.52.51-2.63,2.75a23.55,23.55,0,0,0-3.12,3.63c-1.23,2.58.26,4-1,5.37s-3.57,1.25-5.12.87c-1.34-.33-2-1-2.5-.62s-.24,1.59,0,3.12c.54,3.43,0,3.73.37,5.75.14.71,1.14,5.9,5.13,7.62,3.78,1.63,7.83-.93,8.74-1.5,4.62-2.91,6-8.05,6.62-10.49C289.91,424.28,279.51,410.4,279.06,410.58Z"/><path class="cls-9" d="M222,408.58c.32.13-3.74,8-.63,11.87.31.38.52.5,2.62,2.74a23.27,23.27,0,0,1,3.13,3.63c1.23,2.58-.26,4,1,5.37s3.57,1.26,5.12.87c1.33-.33,2-1,2.5-.62s.24,1.59,0,3.12c-.54,3.43,0,3.73-.38,5.75-.13.71-1.13,5.91-5.12,7.62-3.78,1.63-7.83-.93-8.74-1.5-4.62-2.91-6-8.05-6.63-10.49C211.12,422.28,221.51,408.4,222,408.58Z"/><path class="cls-10" d="M187.88,377.78a196.49,196.49,0,0,1,4,100,193.45,193.45,0,0,1-26,62"/><path class="cls-11" d="M308.73,403c-5.85,15.34-14.72,46.35-4.2,83.61C311,509.49,322.58,527,331.8,538.45"/><path class="cls-12" d="M291.88,291c-2.46,5.46-4.85,10.74-6.85,16.16a132.13,132.13,0,0,0-5,16.45,113.35,113.35,0,0,0-2.54,17.07,142.41,142.41,0,0,0-.08,17.54,64.1,64.1,0,0,1-3.19-17.58,73.44,73.44,0,0,1,1.4-18,77.65,77.65,0,0,1,2.34-8.74,64.94,64.94,0,0,1,3.49-8.34A54.61,54.61,0,0,1,291.88,291Z"/><path class="cls-13" d="M214.21,290.68a54.12,54.12,0,0,1,10.45,14.57,66.16,66.16,0,0,1,3.49,8.34,77.82,77.82,0,0,1,2.34,8.75,73.36,73.36,0,0,1,1.4,18,64.4,64.4,0,0,1-3.18,17.58,144.41,144.41,0,0,0-.09-17.54,114.49,114.49,0,0,0-2.53-17.06,131.16,131.16,0,0,0-5-16.46C219.06,301.42,216.67,296.14,214.21,290.68Z"/></g><g id="Pheonix"><path class="cls-14" d="M191.89,546.3A50.69,50.69,0,0,1,202.23,556a51.88,51.88,0,0,1,10.38,22.51,80.47,80.47,0,0,0-23.68-17.75c-10.93-5.3-20.61-6.67-29.16-16.18a40.54,40.54,0,0,1-6.21-9.23Z"/><path class="cls-15" d="M383.47,257.39a51.16,51.16,0,0,1-3.79-13.64,52,52,0,0,1,2.85-24.63,80.24,80.24,0,0,0,11,27.47c6.58,10.22,14.13,16.43,16.48,29a40.71,40.71,0,0,1,.51,11.11Z"/><path class="cls-16" d="M434.59,351.68a50.83,50.83,0,0,1,6.94-12.33,51.91,51.91,0,0,1,19.41-15.44,80.2,80.2,0,0,0-11.61,27.21c-2.56,11.89-1.59,21.61-8.79,32.17a40.61,40.61,0,0,1-7.49,8.23Z"/><path class="cls-17" d="M412.53,306.63a50.84,50.84,0,0,0-11.7-8,51.79,51.79,0,0,0-24.24-5.22,80.46,80.46,0,0,1,22.49,19.23c7.56,9.52,11,18.66,22.15,24.92a40,40,0,0,0,10.37,4.05Z"/><path class="cls-18" d="M427.77,390.86a50.89,50.89,0,0,0-3.69-13.67,51.84,51.84,0,0,0-15-19.75,80.27,80.27,0,0,1,4.53,29.24c-.45,12.15-3.79,21.33.58,33.34a40.16,40.16,0,0,0,5.23,9.82Z"/><path class="cls-19" d="M426.17,447.64a50.58,50.58,0,0,1,11.33-8.5,52,52,0,0,1,24-6.33,80.5,80.5,0,0,0-21.58,20.24c-7.13,9.86-10.15,19.15-21,25.92a40.58,40.58,0,0,1-10.16,4.51Z"/><path class="cls-20" d="M249.5,549.64a50.62,50.62,0,0,0,13.29-4.9,52,52,0,0,0,18.33-16.69,80.51,80.51,0,0,1-28.72,7.13c-12.14.63-21.59-1.87-33.16,3.56a40.59,40.59,0,0,0-9.31,6.08Z"/><path class="cls-21" d="M392.91,482.16a51,51,0,0,0,2.55-13.92,51.87,51.87,0,0,0-5-24.28,80.35,80.35,0,0,1-8.49,28.34c-5.64,10.78-12.61,17.63-13.83,30.35a40.76,40.76,0,0,0,.49,11.12Z"/><path class="cls-22" d="M383.38,504.69a50.78,50.78,0,0,1,13.83-3,51.88,51.88,0,0,1,24.43,4.25,80.63,80.63,0,0,0-28.06,9.39c-10.58,6-17.21,13.17-29.89,14.8a40.45,40.45,0,0,1-11.12-.14Z"/><path class="cls-23" d="M345.41,524.18a50.76,50.76,0,0,0,8-11.68,52,52,0,0,0,5.31-24.22,80.56,80.56,0,0,1-19.31,22.43c-9.54,7.53-18.7,10.95-25,22.07a40.18,40.18,0,0,0-4.08,10.35Z"/><path class="cls-24" d="M304.62,550.51a50.83,50.83,0,0,1,13.7,3.57A51.94,51.94,0,0,1,338.2,568.9a80.19,80.19,0,0,0-29.28-4.28c-12.15.56-21.3,4-33.35-.29a40.4,40.4,0,0,1-9.87-5.14Z"/><path class="cls-25" d="M84.79,349.26A50.76,50.76,0,0,0,88.35,363a51.91,51.91,0,0,0,14.81,19.89,80.6,80.6,0,0,1-4.27-29.28c.57-12.15,4-21.3-.27-33.35a40.75,40.75,0,0,0-5.14-9.87Z"/><path class="cls-26" d="M168.94,530.64A50.72,50.72,0,0,0,183,532.35a52,52,0,0,0,23.92-6.51,80.5,80.5,0,0,1-28.81-6.74c-11.09-5-18.36-11.51-31.13-12a40.41,40.41,0,0,0-11.06,1.17Z"/><path class="cls-27" d="M83.07,419.24A50.61,50.61,0,0,0,91,431a51.93,51.93,0,0,0,20.56,13.86A80.3,80.3,0,0,1,97.8,418.64c-3.48-11.64-3.28-21.42-11.29-31.37a40.31,40.31,0,0,0-8.12-7.62Z"/><path class="cls-28" d="M119.21,488.33a50.89,50.89,0,0,0,12.84,6,51.92,51.92,0,0,0,24.77,1.2,80.53,80.53,0,0,1-25.32-15.31c-9-8.16-13.91-16.62-25.92-21a40.5,40.5,0,0,0-10.89-2.31Z"/><path class="cls-29" d="M80.66,465.77a50.63,50.63,0,0,1-1.33,14.09,52,52,0,0,1-11.46,22,80.47,80.47,0,0,0-.45-29.59c-2.49-11.9-7.32-20.39-5-33a40.23,40.23,0,0,1,3.5-10.56Z"/><path class="cls-30" d="M118.08,235.64a50.65,50.65,0,0,1-13.72,3.5,51.89,51.89,0,0,1-24.57-3.34,80.43,80.43,0,0,0,27.7-10.43c10.35-6.36,16.71-13.79,29.32-15.88a40.69,40.69,0,0,1,11.12-.28Z"/><path class="cls-31" d="M157.11,203.74a50.91,50.91,0,0,1-13.83-3,52,52,0,0,1-20.44-14,80.58,80.58,0,0,0,29.43,3.16c12.11-1,21.13-4.79,33.33-1a40.6,40.6,0,0,1,10.06,4.76Z"/><path class="cls-32" d="M114.26,277.26a51,51,0,0,0-3,13.84,52.05,52.05,0,0,0,4.33,24.42,80.4,80.4,0,0,1,9.31-28.09c5.95-10.6,13.11-17.25,14.7-29.93a40.31,40.31,0,0,0-.17-11.13Z"/><path class="cls-33" d="M162.74,230.62a50.81,50.81,0,0,0-9.06,10.88,52,52,0,0,0-7.53,23.63,80.62,80.62,0,0,1,21.31-20.54c10.2-6.62,19.63-9.17,26.93-19.66a40.2,40.2,0,0,0,5-9.93Z"/><path class="cls-34" d="M78.54,300.38A50.67,50.67,0,0,1,68,309.8a51.86,51.86,0,0,1-23.36,8.33,80.32,80.32,0,0,0,19.8-22c6.26-10.42,8.5-19.94,18.73-27.6a40.5,40.5,0,0,1,9.75-5.36Z"/><path class="cls-35" d="M60.52,386.63a50.47,50.47,0,0,1-7.85,11.78,51.86,51.86,0,0,1-20.51,13.94,80.2,80.2,0,0,0,13.62-26.27C49.23,374.42,49,364.65,57,354.67A40.6,40.6,0,0,1,65.06,347Z"/><path class="cls-36" d="M440.64,357.14c-1.17-7.66-10.29-62.09-56.17-100.75C366,240.79,346.37,231.9,345,233.72c-1.93,2.66,38,23.66,62,69.67,6,11.53,15.57,30.27,18.38,56.67,3.24,30.44-4.11,54-8.9,68.72-4,12.31-11.12,33.52-28.31,55C361.68,516.94,328,529.52,314,534.54c-14.58,5.23-71.54,25.67-133.62-2.95-6.05-2.79-68.66-32.9-89.85-102.78a167.35,167.35,0,0,1-5-71.87c1.16-7.91,6.54-40.53,30.3-74.43,12.23-17.44,33.12-47.25,69.68-55.9a89.08,89.08,0,0,1,18.73-2.36c1.78.75,4.94.78,11.19.8,5.83,0,8.74,0,12.23-.28a63.22,63.22,0,0,0,18.57-3.88,52.65,52.65,0,0,0,18.21-10.75c4.27-4,5.31-5.8,7.36-7.57a14.54,14.54,0,0,1,3-2.13c4.37-2.24,8.49-.77,14.87.05,6,.79,12.22,1.58,13.07-.18,1.29-2.68-8.19-14.2-21.57-17.52-10.65-2.64-28-1.12-33.9-5.84a11.8,11.8,0,0,0-1.7-1.28c-.13.14,2.59,3.63,6.53,6.07,4.54,2.8,8.34,2.75,8.27,3.25s-6,1.08-10.54-1.12a19.63,19.63,0,0,1-5.16-3.65c-.58-.61-1-1.13-1.05-1.09s1.69,4.12,4.6,6.82c5.35,5,11.38,2.81,12.53,5.91,1.3,3.55-5.58,8.92-6.59,9.7-2.43,1.91-5.11,4-8.71,3.66-4.41-.42-7-4.19-7.72-5.2-3.3-4.78-2.4-10.29-2.05-12.31,1.06-5.93,4.07-8.07,7.43-13.67a56.93,56.93,0,0,0,6.37-19.56c.91-6.47.19-13.44-6.16-29.28-7.85-19.58-11.87-21.69-20.59-40.92C216,69.23,212.23,61,210.69,49c-2.64-20.56,3.05-37,1-37.53-1.34-.32-4.18,6.8-6.43,12.45-3.67,9.2-6.12,15.34-7,21.93-1.18,9,2,18,8.52,35.63,6,16.28,11.35,26.29,8.45,28.52-1.05.8-2.71.24-4.59-.39-5.61-1.89-8.3-6.93-11.27-12.46-2.74-5.13-5.06-9.45-4.55-14.59.08-.79.31-2.4-.12-2.55-.88-.31-3.85,6-4.36,7.16-7.16,16.25,17.94,45.25,12.78,50-1.82,1.7-6.56-.48-8-1.15-5.67-2.62-8.11-8.23-8.7-9.72-1.43-3.6-1.15-6.21-1.83-6.27-1.09-.1-3.21,6.41-3.53,11.23-1.38,20.93,29.39,36.92,26.09,42.53-1.17,2-6,1.41-8.56.68-12.8-3.61-16.26-23-18.62-22.34-1.54.44-1.87,9.21,1.74,18.27,4.79,12.06,13.49,16.92,11.9,19.73a5.4,5.4,0,0,0-.41,1.68l-.59.08h0l-.4.06h-.09A127,127,0,0,0,119.27,229c-16.2,16.87-44.63,51.55-56.15,103.3-.6,2.67-1.58,7.09-2.58,12.92C58.61,356.53,47.23,426.79,88.35,486c0,0,48.32,69,149.17,75a209.57,209.57,0,0,0,23.5,0c17.77-1,53.5-3.31,90.86-25a182.85,182.85,0,0,0,68.3-70.53C427.53,451.91,448.86,411,440.64,357.14Z"/><path class="cls-37" d="M127.92,519a50.83,50.83,0,0,1,4.67,13.36,52,52,0,0,1-1.24,24.77,80,80,0,0,0-12.75-26.7c-7.23-9.78-15.17-15.48-18.33-27.86A40.93,40.93,0,0,1,99,491.55Z"/><path class="cls-38" d="M298,194.69c.64-.76,3.37.17,5.21,1.68a7.25,7.25,0,0,1,2.78,4.7,5.62,5.62,0,0,1-.29,2.4c-.3.82-.79,1.79-1,1.73s-.18-.53-.17-.76c0-.53.24-.73.13-.93s-.74-.19-.94-.18c-.63.06-.8-.09-3.08-.77-2.59-.76-3.88-1.14-4.89-1.32-2.81-.48-5-.2-5-.58,0,0,0-.15.59-.44a8.93,8.93,0,0,1,3.51-.82c1.25-.08,1.78,0,2.43-.43a2.38,2.38,0,0,0,.62-.63C298.77,197,297.43,195.36,298,194.69Z"/></g></svg>