<?xml version="1.0" encoding="utf-8"?>
<!-- Generator: Adobe Illustrator 23.0.3, SVG Export Plug-In . SVG Version: 6.00 Build 0)  -->
<svg version="1.1" id="Layer_1" xmlns="http://www.w3.org/2000/svg" xmlns:xlink="http://www.w3.org/1999/xlink" x="0px" y="0px"
	 viewBox="0 0 1802.1 212.2" style="enable-background:new 0 0 1802.1 212.2;" xml:space="preserve">
<style type="text/css">
	.st0{fill:#FFFFFF;stroke:#FFFFFF;stroke-miterlimit:10;}
	.st1{fill:#FFFFFF;}
</style>
<title>Gradient Type</title>
<path class="st0" d="M101.7,103.6c-0.1,15.3,1.5,25.6-1.8,38.1c-2.5,9.2-6.7,14.1-14.7,18.9c-6.4,3.8-14.7,4.6-18.8,4.6
	c-2.1,0-8.8-0.6-13.9-3.9l-2-8.8c2.1,1.3,4.3,2.2,6.7,2.7c3.4,0.8,7,0.4,10.1-1.1c5-2.7,7.4-7.4,8.3-13.4
	c1.8-12.9,1.3-23.5,1.3-37.8c0-6.2-0.4-29.7-0.8-38.8l3.9-3.6c3.5,0.4,7.1,0.6,10.6,0.6c3.5,0,7.8-0.3,11.8-0.4
	C102,74.2,101.8,90.3,101.7,103.6z"/>
<path class="st0" d="M253,143.2c-4.1,3.1-6.3,4.9-10.1,8c-7.1-11.9-11.2-18.8-18.5-30.7c-6.2-10.1-9.8-16-16-25.9
	c-6.4,9.5-10.4,14.8-16.5,24.5c-8.1,12.6-12.6,20-20,33l-8-11.3c8-11.6,12.3-18.2,19.9-30.1c6.9-10.8,10.6-16.9,17.1-28.1l-8.3-11.8
	c4.1-2.7,7.6-4.8,11.6-7.6c4.3-2.9,6.9-4.6,10.6-7.6c5.9,10.4,13.3,23.1,23.2,38.5s16.4,25.5,26.6,40.9
	C260,138.2,257.5,140,253,143.2z M215.4,141c-3.1,2.8-5,5.2-7.4,7.7c-4.2-3.9-5.5-5.2-9-8.1c-3.2-2.9-5.7-4.9-8.8-7.4
	c3.5-3.6,6.2-6,9.4-9.7c3.2-3.4,4.8-5.3,7.7-8.8c2.8,3.2,5.3,5.9,8.1,8.7c4.6,4.6,6.6,6.7,9.4,9.4
	C221.4,135.3,218.3,138.1,215.4,141L215.4,141z"/>
<path class="st0" d="M376.2,87.8c-4.8,7.1-8,13-11.1,18.3c-0.1,8.1,0,12.6,0.4,20.7c0.4,8.4,0.7,13.4,1.7,21.4
	c-5-0.3-7.3-0.4-12.7-0.4c-4.3,0-6.9,0.1-11.2,0.4l-3.4-3c0.7-6.3,1-9.8,1.3-16.1c0.3-7.1,0.4-11.1,0.3-18.2
	c-5-6.6-8.5-10.4-13.7-16.8c-5.9-7.3-9.2-11.3-15.5-18.3l1-3.4c3.5-2.4,5.6-3.8,9-6.4c3.6-2.7,7-5.7,10.3-8.8
	c4.5,7.7,7.3,12.2,12.2,19.6c4.8,7.1,7.4,11.1,12.6,17.9c4.8-6.7,6.9-10.1,11.3-16.9c5-7.8,8.3-12.9,13-20.9l8.3,11.2
	C384.5,75.6,381.4,80.1,376.2,87.8z"/>
<path class="st0" d="M514,141.8c-10.2,5.3-27.6,6.4-35.1,6.4H456l-3.5-3.4c0.4-15.4,0.6-24.9,0.6-41.2c0-15.3-0.1-28.1-0.4-39.5
	l3.5-3.9h26c10.6,0,22.5,1,32.9,5.5c10.4,4.5,21.4,16.8,21.4,35.8C536.5,121.3,529.9,133.6,514,141.8z M477.8,68.2
	c-0.4,5.7-1,21.4-1.1,35.6c0,14.4,0.6,28,1,36.8c19.2-2,32.2-11.1,32.2-38.2C509.8,75.5,492.6,68.2,477.8,68.2L477.8,68.2z"/>
<path class="st0" d="M678.9,143.2c-3.8,3.5-5.9,5.5-9.4,9.1c-10.1-12.7-16-19.9-26.5-32.3c-9.1-10.8-14.4-16.9-23.8-27.4
	c-0.3,9.1-0.4,14.1-0.4,23.2c-0.1,11.5,0.1,29.4,0.1,29.4l-12.9,6.2c0.4-15.1,0.6-23.8,0.6-38.9c0-13.7,0-21.3-0.3-35l-5.3-5.6
	c3.9-2.5,6-3.9,9.8-6.7c4.3-3.1,6.9-5,10.9-8.4c9.8,12.7,15.3,19.7,25.5,32.1c8.4,10.2,13.4,16.4,22.1,26
	c0.1-10.2,0.4-16.4,0.3-26.7c0-9.4-0.4-14.7-0.6-24.1l13.2-6.4c-0.1,13.3-0.1,20.9-0.1,34.2c0.1,14.7,0.1,23.1,0.4,37.8l5.3,5.9
	C684.4,138.3,682.2,140.1,678.9,143.2z"/>
<path class="st0" d="M878.8,147.8c-11.8,0-19.3,0.3-27.6,0.4l-4.3-3.5c0.3-16.7,0.6-25.3,0.6-42c0-14.8,0-23.2-0.6-37.9l4.3-4.5
	c9.4,0.3,16.2,0.4,25.5,0.6s13.6-0.1,28-0.6l-4.9,10.4c-4.1-0.1-7.4-0.3-12-0.4c-5.6-0.1-11.5-0.1-15.7-0.1l-0.6,30.4
	c3.9-2.5,6-4.2,9.1-6.4c4.1-3.2,5.5-4.3,8.8-7.3c2.5,3.4,4.6,5.6,7.4,8.8s5.7,6.2,7.7,8.1c-3.4,2.5-5.3,4.1-9.1,7
	c-3.8,2.9-4.9,3.9-8.5,7.1c-2.8-3.1-4.1-4.6-8-8.5c-2.3-2.5-4.8-4.8-7.4-6.9l0.3,35.6c6.2,0,10.1-0.1,16.2-0.3
	c4.9-0.1,9.8-0.3,14.7-0.6l5.3,11.1C898,148.1,890.2,147.8,878.8,147.8z"/>
<path class="st0" d="M1028.8,142.4c-10.6,5.5-24.5,5.9-31.2,5.9h-20.2l-3.3-3c0.1-10.1,0.4-22.1,0.4-36.8c0-13.6-0.3-26.2-0.4-35
	l3.4-3.8h23.1c9.5,0,20.3,0.8,29.5,5s19,15,19,31.9C1049,123.5,1043,135.1,1028.8,142.4z M996.6,76.7c-0.6,7.7-1,19.2-1.1,31.8
	c0,12.9,0.4,24.2,1,33c15.5-1.5,28.8-9.9,28.8-34.3C1025.2,83.2,1008.9,76.6,996.6,76.7L996.6,76.7z"/>
<path class="st0" d="M1202.5,109.2c-5.6,15-8.3,23.7-12.7,39.1c-1.6-0.2-3.2-0.3-4.8-0.3c-1.6-0.1-3.2,0-4.8,0.3
	c-3.2-8.8-5-13.7-8.5-22.3c-3.2-8.1-5.2-12.7-8.7-20.7c-3.2,7.4-4.8,11.8-7.6,19.5c-3.2,9.1-5,14.1-7.7,23.5
	c-1.5-0.2-3.1-0.3-4.6-0.3c-1.5,0-2.7,0.1-4.2,0.3c-5.6-14.1-8.7-21.7-15.3-35.3c-6.2-12.7-10.4-20.3-16.9-32.1l1.7-3.2
	c3.4-1.5,5.5-2.7,8.8-4.5c3.5-1.9,6.8-4,9.9-6.4c3.8,9.5,6,15,10.2,24.5c4.2,9.2,6.7,14.4,11.3,23.4L1158,93l-7.3-14.4l1.5-3.4
	c2.5-1.1,4.1-1.7,6.7-2.9c3.4-1.6,6.7-3.4,9.8-5.5c3.6,9.2,5.7,14.3,9.7,23.7c4.1,9.1,6.3,14.3,10.8,23.2c3.2-8.3,5.2-13,8.3-21.4
	c3.8-10.2,5.6-15.3,9.2-25.5l10.1,7C1211,87.8,1207.7,94.9,1202.5,109.2z"/>
<path class="st0" d="M1342.6,144.1c-3.6,2.7-5.6,4.3-9,7.1c-6.4-10.6-10.1-16.8-16.5-27.4c-5.6-9-8.8-14.3-14.3-23.1
	c-5.7,8.4-9.2,13.2-14.7,21.8c-7.3,11.2-11.3,17.9-17.9,29.5l-7.1-10.2c7.1-10.4,11.1-16.2,17.8-26.9c6.2-9.5,9.5-15.1,15.3-25.1
	l-7.4-10.5c3.6-2.2,6.7-4.2,10.4-6.7c3.9-2.7,6.2-4.2,9.5-6.7c5.3,9.2,11.9,20.6,20.7,34.3c8.8,13.7,15,23,24.1,36.4
	C1349.2,139.3,1346.7,141.1,1342.6,144.1z M1309,142c-2.8,2.5-4.5,4.6-6.7,6.9c-2.5-2.7-4.8-4.3-7.7-7c-2.6-2.4-5.3-4.7-8.1-6.9
	c3.1-3.2,5.5-5.3,8.4-8.5s4.2-4.8,6.9-8c2.5,2.9,4.8,5.3,7.3,7.8c4.1,4.1,5.9,6,8.4,8.4C1314.5,136.9,1311.7,139.3,1309,142
	L1309,142z"/>
<path class="st0" d="M1477.2,143.1c-3.4,2.9-5.6,4.8-8.7,7.8c-4.8-6.7-7.4-10.5-12.5-17.1s-10.1-13.2-13.3-16.9l-6,0.1
	c0,0,0.3,9.7,0.6,16c0.3,6,0.7,15.3,0.7,15.3c-2.2-0.1-6-0.4-10.2-0.4s-7.3,0.3-9.5,0.4l-3.9-3.1c0.3-14.8,0.4-22.7,0.4-37.5
	c0-13.3,0-21-0.4-34.2l3.9-3.8h21.8c12,0,21.6,1.8,26.2,4.5c10.1,5.9,11.5,13.9,11.5,19.5c0,9-6.4,14.1-7.3,14.8
	c-1.9,1.6-3.9,2.8-6.2,3.8c2.9,3.2,5.5,6.6,9.2,10.6c4.8,5.3,7.6,8.1,12.5,13C1482.8,138.3,1480.5,140.3,1477.2,143.1z M1450.4,80.9
	c-3.9-2.9-8.1-3.8-13.6-4.5l-0.1,35.4c4.3-0.1,8.5-1.3,12.2-3.6c5.3-3.5,7.4-8,7.4-14.7C1456.3,88.6,1453.7,83.2,1450.4,80.9
	L1450.4,80.9z"/>
<path class="st0" d="M1603.4,142.4c-10.6,5.5-24.5,5.9-31.2,5.9H1552l-3.3-2.9c0.1-10.1,0.4-22.1,0.4-36.8c0-13.6-0.3-26.2-0.4-35
	l3.3-3.8h23.1c9.5,0,20.3,0.8,29.5,5s19,15,19,31.9C1623.7,123.6,1617.7,135.1,1603.4,142.4z M1571.3,76.7c-0.6,7.7-1,19.2-1.1,31.8
	c0,12.9,0.4,24.2,1,33c15.5-1.5,28.8-9.9,28.8-34.3C1599.9,83.2,1583.6,76.6,1571.3,76.7L1571.3,76.7z"/>
<path class="st0" d="M1729.6,77.7c-10.2,4.5-7.8,22.4-7.8,27.9c0,14.6,0.6,27-6.7,34.6c-5.6,6-12,9.1-21.4,9.5
	c-4.8,0.4-9.6-0.4-14-2.2l-2.4-6.6c4.5,1.1,7.4,1.7,11.8,0.4c9.9-2.8,8.7-17.6,8.7-30.1c0-12.7-1.7-22.4,6.4-32.5
	c5.5-7.1,12.6-10.4,22-10.5c4.1-0.1,8.2,0.5,12.2,1.7l3.5,6.6C1737.7,75.7,1733.4,76.1,1729.6,77.7z"/>
<g>
	<polygon class="st1" points="1163.8,187.1 10.1,212.2 0,212.5 0,202.2 0,10 0,0 10,0 1792.1,0 1802.7,0 1802.1,10 1792.1,202.2 
		1782.1,10 1792.1,20 10,20 20,10 20,202.2 9.9,192.2 	"/>
</g>
</svg>
