<svg xmlns="http://www.w3.org/2000/svg" viewBox="0 0 344.41 387.18"><defs><style>.cls-1{fill:#fff;}.cls-2{fill:#065dbc;}.cls-2,.cls-3,.cls-4,.cls-5,.cls-6{stroke:#fff;stroke-linejoin:round;stroke-width:0.66px;}.cls-3{fill:#50bcdd;}.cls-4{fill:#068abc;}.cls-5{fill:none;}.cls-6{fill:#1a7bd3;}</style></defs><g id="Layer_2" data-name="Layer 2"><g id="Texture"><polygon class="cls-1" points="231.15 11.89 244.32 54.03 244.32 167.3 246.96 193.64 236.42 167.3 144.23 11.89 30.97 11.89 46.77 54.03 46.77 188.28 58.59 191.88 79.19 208.06 121.86 212.48 115.98 241.91 118.92 287.52 135.84 319.9 136.33 320.47 136.33 185.74 133.69 159.4 144.23 185.74 260.13 380.65 331.24 380.65 331.24 54.03 344.41 11.89 231.15 11.89"/><polygon class="cls-2" points="91.7 371.4 91.7 371.4 118.92 287.52 115.98 241.91 79.19 208.06 85.08 253.68 91.7 371.4"/><polygon class="cls-2" points="91.7 371.4 85.08 253.68 81.4 300.77 91.7 371.4"/><polygon class="cls-2" points="85.81 332.41 91.7 371.4 81.4 300.77 85.81 332.41"/><polygon class="cls-2" points="121.86 212.48 79.19 208.06 115.98 241.91 121.86 212.48"/><path class="cls-2" d="M149.5,380.65H128.29l-3.48,4.73L19.59,386.85l104.72-1.08.06,0a.46.46,0,0,1,.26,0,.45.45,0,0,1,.11,0l36.85-.38-5.88-41.94-12.53,17Z"/><polygon class="cls-2" points="143.18 360.44 128.29 380.65 149.5 380.65 143.18 360.44"/><polygon class="cls-2" points="125.49 380.65 113.61 380.65 124.81 385.38 125.49 380.65"/><polygon class="cls-2" points="128.29 380.65 125.49 380.65 124.81 385.38 128.29 380.65"/><polygon class="cls-2" points="143.18 360.44 155.71 343.44 136.33 320.47 136.33 338.51 143.18 360.44"/><polygon class="cls-2" points="118.92 287.52 91.7 371.4 113.61 380.65 125.49 380.65 134.58 318.08 125.49 380.65 128.29 380.65 143.18 360.44 136.33 338.51 136.33 320.47 135.84 319.9 118.92 287.52"/><polygon class="cls-2" points="85.08 253.68 61.53 226.46 81.4 300.77 85.08 253.68"/><polygon class="cls-2" points="46.77 256.49 40.19 269.87 37.99 307.39 46.77 317.86 46.77 256.49"/><polygon class="cls-2" points="85.81 332.41 81.4 300.77 61.53 226.46 70.37 259.85 61.53 226.46 46.77 256.49 46.77 317.86 91.7 371.4 91.7 371.4 85.81 332.41"/><polygon class="cls-2" points="113.61 380.65 48.53 380.65 19.59 386.85 124.81 385.38 113.61 380.65"/><polygon class="cls-2" points="48.53 380.65 113.61 380.65 91.7 371.4 91.7 371.4 48.53 380.65"/><polygon class="cls-2" points="46.77 218.59 28.42 208.8 40.19 269.87 46.77 256.49 46.77 218.59"/><polygon class="cls-2" points="46.77 218.59 46.77 256.49 61.53 226.46 46.77 218.59"/><polygon class="cls-2" points="33.6 380.65 43.46 349.1 23.27 339.76 43.46 349.1 46.77 338.51 46.77 317.86 37.99 307.39 23.27 339.76 19.59 386.85 48.53 380.65 33.6 380.65"/><polygon class="cls-2" points="46.77 338.51 43.46 349.1 91.7 371.4 91.7 371.4 46.77 317.86 46.77 338.51"/><polygon class="cls-2" points="43.46 349.1 33.6 380.65 48.53 380.65 91.7 371.4 43.46 349.1"/><polygon class="cls-2" points="85.08 253.68 79.19 208.06 61.53 226.46 85.08 253.68"/><polygon class="cls-2" points="46.77 188.28 41.67 186.73 28.42 208.8 46.77 218.59 46.77 188.28"/><polygon class="cls-2" points="61.53 226.46 79.19 208.06 58.59 191.88 46.77 188.28 46.77 218.59 61.53 226.46"/><path class="cls-3" d="M106.63,126.35l-2-14.73-12-5.74s-4.24-11-4.24-11.72-2.5-20-2.5-20L80.43,68l-4.24-4.24-2.25-10-13.47-14L50,22.29,40.75,17.8l-4-3.5L32,9.31l-11.73.5-9.48-3L7.32,2.58,1.83.33l-1.5,5L9.81,31.77,17.3,38l5.49,15.22-1.5,10,2.25,10.4L21.17,98.15l2.12,23.7,4.11,22.09,2.87,7.48,12,20.67L53.56,184.4l24.29,6.33,17,2.33,1.66-7.66,9.32-2h19.63l9.32-10-3-12.64,4.33-9.65-11.31-11.64-9-1.33,2-7.66v-4.32l-3.66-4-2.66,2.66-1,2.33Z"/><polygon class="cls-4" points="136.33 320.47 135.84 319.9 134.58 318.08 118.92 287.52 115.98 241.91 121.86 212.48 136.33 185.74 139.53 211.48 143.77 237.68 138.78 269.25 136.33 320.47"/><polygon class="cls-4" points="136.33 185.74 133.69 159.4 124.43 155.71 116.45 157.95 113.2 163.19 115.2 183.16 114.45 190.14 103.47 199.88 79.19 208.06 121.86 212.48 136.33 185.74"/><polygon class="cls-4" points="41.67 186.73 44.41 161.78 40.59 152.8 51.73 138.66 53.73 132.33 60.72 128.34 67.37 133.33 73.69 146.47 77.02 156.12 75.69 160.12 80.35 166.77 88.17 169.6 94.99 166.44 110.46 172.26 113.2 163.19 115.2 183.16 114.45 190.14 103.47 199.88 79.19 208.06 46.77 188.28 41.67 186.73"/><line class="cls-5" x1="96.98" y1="185.53" x2="103.47" y2="199.88"/><polyline class="cls-5" points="87.44 184.47 79.19 208.06 72.28 192.01 82.14 179.16 87.44 184.47 96.98 185.53 107.71 178.79 110.46 172.26"/><polyline class="cls-5" points="88.17 169.6 82.14 179.16 72.78 178.42 56.81 186.28 46.77 188.28 44.41 161.78 68.72 174.36 75.69 160.12 80.35 166.77 72.78 178.42 68.72 174.36 56.81 186.28 72.28 192.01"/><polyline class="cls-5" points="127.93 164.19 136.33 185.74 122.94 165.77 115.2 183.16 110.46 172.26 114.45 190.14 121.86 212.48 103.47 199.88 107.71 178.79"/><polygon class="cls-2" points="121.86 212.48 143.77 237.68 138.78 269.25 115.98 241.91 121.86 212.48"/><polygon class="cls-6" points="115.98 241.91 138.78 269.25 136.33 320.47 134.58 318.08 118.92 287.52 115.98 241.91"/><polygon class="cls-5" points="51.73 138.66 56.62 144.29 60.24 146.72 65.48 144.17 67.37 133.33 60.72 128.34 53.73 132.33 51.73 138.66"/><polygon class="cls-5" points="53.73 132.33 56.62 144.29 60.24 146.72 65.48 144.17 53.73 132.33"/><line class="cls-5" x1="40.59" y1="152.8" x2="60.24" y2="146.72"/><line class="cls-5" x1="65.48" y1="144.17" x2="44.41" y2="161.78"/><polyline class="cls-5" points="112.83 146.22 116.45 157.95 122.94 165.77 127.93 164.19 133.69 159.4"/><polygon class="cls-5" points="110.46 127.18 108.71 140.74 109.09 146.6 110.71 152.59 115.78 138.16 117.78 130.5 113.08 132.63 110.46 127.18"/><polyline class="cls-5" points="111.46 124.85 113.7 126.51 117.78 126.18"/><polyline class="cls-5" points="113.7 126.51 113.08 132.63 110.71 152.59"/><line class="cls-5" x1="109.09" y1="146.6" x2="113.08" y2="132.63"/><polyline class="cls-5" points="30.27 151.42 45.83 130.5 51.32 120.52 62.8 125.26 80.76 134.25 86.75 149.72 106.22 162.94 110.46 172.26 110.71 152.59 112.83 146.22 124.77 139.49 124.43 155.71"/><line class="cls-5" x1="45.83" y1="130.5" x2="51.73" y2="138.66"/><polyline class="cls-5" points="80.35 166.77 77.02 156.12 65.48 144.17 60.72 128.34"/><polyline class="cls-5" points="77.02 156.12 80.76 134.25 90.25 127.51 86.75 149.72 80.35 166.77 106.22 162.94 90.25 127.51 106.63 126.35 90.25 127.51 73.78 121.02"/><line class="cls-5" x1="110.71" y1="152.59" x2="106.22" y2="162.94"/><polyline class="cls-5" points="78.27 82.84 88.42 94.16 73.78 121.02 78.27 82.84 85.92 74.19 78.27 82.84 72.63 73.98 76.19 63.71 72.63 73.98 57.56 117.53"/><polyline class="cls-5" points="32.02 9.31 26.11 32.44 20.29 9.81 10.81 6.82 9.81 31.77"/><polyline class="cls-5" points="0.33 5.32 17.3 38.01 26.11 32.44 34.1 23.45 40.75 17.8 39.59 24.7 44.58 28.44 49.99 22.29"/><polyline class="cls-5" points="17.3 38.01 60.47 39.76 44.58 28.44"/><polyline class="cls-5" points="39.59 24.7 26.11 32.44 41.34 39.17"/><polyline class="cls-5" points="57.56 117.53 50.82 56.89 39.59 38.42 23.29 121.85 51.32 120.52 57.56 117.53 73.78 121.02 92.66 105.88"/><polyline class="cls-5" points="50.82 56.89 66.29 46.41 60.47 39.76"/><polyline class="cls-5" points="23.54 73.61 30.94 82.43 32.77 72.86 30.02 61.72 22.79 53.23"/></g></g></svg>